<svg width="298" height="68" viewBox="0 0 298 68" fill="none" xmlns="http://www.w3.org/2000/svg">
<path d="M75.804 57.4402C72.5773 57.4402 69.996 56.5455 68.06 54.7562C66.1533 52.9669 65.1413 50.4882 65.024 47.3202L64.98 45.5602L65.024 43.8002C65.1413 40.6322 66.1533 38.1535 68.06 36.3642C69.996 34.5749 72.5773 33.6802 75.804 33.6802C78.1213 33.6802 80.072 34.0909 81.656 34.9122C83.2693 35.7335 84.4573 36.7455 85.22 37.9482C86.012 39.1215 86.4373 40.2509 86.496 41.3362C86.5253 41.6295 86.4226 41.8789 86.188 42.0842C85.9826 42.2895 85.7333 42.3922 85.44 42.3922H81.524C81.2013 42.3922 80.9666 42.3335 80.82 42.2162C80.6733 42.0695 80.5266 41.8202 80.38 41.4682C79.94 40.3535 79.3533 39.5469 78.62 39.0482C77.916 38.5495 77.0066 38.3002 75.892 38.3002C74.396 38.3002 73.2226 38.7695 72.372 39.7082C71.5506 40.6469 71.1106 42.0842 71.052 44.0202L71.008 45.6482L71.052 47.1002C71.228 50.9135 72.8413 52.8202 75.892 52.8202C77.036 52.8202 77.96 52.5855 78.664 52.1162C79.368 51.6175 79.94 50.7962 80.38 49.6522C80.4973 49.3295 80.6293 49.0949 80.776 48.9482C80.952 48.8015 81.2013 48.7282 81.524 48.7282H85.44C85.7333 48.7282 85.9826 48.8309 86.188 49.0362C86.4226 49.2415 86.5253 49.4909 86.496 49.7842C86.4373 50.8109 86.0266 51.9255 85.264 53.1282C84.5013 54.3015 83.328 55.3135 81.744 56.1642C80.16 57.0149 78.18 57.4402 75.804 57.4402Z" fill="#2E5BFF"/>
<path d="M92.1397 57.0002C91.8463 57.0002 91.597 56.8975 91.3917 56.6922C91.1863 56.4869 91.0837 56.2375 91.0837 55.9442V35.2202C91.0837 34.8975 91.1863 34.6335 91.3917 34.4282C91.597 34.2229 91.8463 34.1202 92.1397 34.1202H95.7477C96.0703 34.1202 96.3343 34.2229 96.5397 34.4282C96.745 34.6335 96.8477 34.8975 96.8477 35.2202V37.0242C98.3143 35.0882 100.426 34.1202 103.184 34.1202H105.032C105.354 34.1202 105.604 34.2229 105.78 34.4282C105.985 34.6042 106.088 34.8535 106.088 35.1762V38.3882C106.088 38.6815 105.985 38.9309 105.78 39.1362C105.604 39.3415 105.354 39.4442 105.032 39.4442H101.556C100.177 39.4442 99.0917 39.8402 98.2997 40.6322C97.5077 41.4242 97.1117 42.5095 97.1117 43.8882V55.9442C97.1117 56.2375 97.009 56.4869 96.8037 56.6922C96.5983 56.8975 96.349 57.0002 96.0557 57.0002H92.1397Z" fill="#2E5BFF"/>
<path d="M110.397 30.3802C110.104 30.3802 109.855 30.2775 109.649 30.0722C109.444 29.8669 109.341 29.6175 109.341 29.3242V26.1122C109.341 25.7895 109.444 25.5255 109.649 25.3202C109.855 25.1149 110.104 25.0122 110.397 25.0122H114.445C114.768 25.0122 115.032 25.1149 115.237 25.3202C115.443 25.5255 115.545 25.7895 115.545 26.1122V29.3242C115.545 29.6175 115.428 29.8669 115.193 30.0722C114.988 30.2775 114.739 30.3802 114.445 30.3802H110.397ZM110.573 57.0002C110.28 57.0002 110.031 56.8975 109.825 56.6922C109.62 56.4869 109.517 56.2375 109.517 55.9442V35.1762C109.517 34.8535 109.62 34.6042 109.825 34.4282C110.031 34.2229 110.28 34.1202 110.573 34.1202H114.313C114.607 34.1202 114.856 34.2229 115.061 34.4282C115.267 34.6335 115.369 34.8829 115.369 35.1762V55.9442C115.369 56.2375 115.267 56.4869 115.061 56.6922C114.856 56.8975 114.607 57.0002 114.313 57.0002H110.573Z" fill="#2E5BFF"/>
<path d="M131.062 57.4402C127.835 57.4402 125.254 56.5455 123.318 54.7562C121.411 52.9669 120.399 50.4882 120.282 47.3202L120.238 45.5602L120.282 43.8002C120.399 40.6322 121.411 38.1535 123.318 36.3642C125.254 34.5749 127.835 33.6802 131.062 33.6802C133.379 33.6802 135.33 34.0909 136.914 34.9122C138.527 35.7335 139.715 36.7455 140.478 37.9482C141.27 39.1215 141.695 40.2509 141.754 41.3362C141.783 41.6295 141.68 41.8789 141.446 42.0842C141.24 42.2895 140.991 42.3922 140.698 42.3922H136.782C136.459 42.3922 136.224 42.3335 136.078 42.2162C135.931 42.0695 135.784 41.8202 135.638 41.4682C135.198 40.3535 134.611 39.5469 133.878 39.0482C133.174 38.5495 132.264 38.3002 131.15 38.3002C129.654 38.3002 128.48 38.7695 127.63 39.7082C126.808 40.6469 126.368 42.0842 126.31 44.0202L126.266 45.6482L126.31 47.1002C126.486 50.9135 128.099 52.8202 131.15 52.8202C132.294 52.8202 133.218 52.5855 133.922 52.1162C134.626 51.6175 135.198 50.7962 135.638 49.6522C135.755 49.3295 135.887 49.0949 136.034 48.9482C136.21 48.8015 136.459 48.7282 136.782 48.7282H140.698C140.991 48.7282 141.24 48.8309 141.446 49.0362C141.68 49.2415 141.783 49.4909 141.754 49.7842C141.695 50.8109 141.284 51.9255 140.522 53.1282C139.759 54.3015 138.586 55.3135 137.002 56.1642C135.418 57.0149 133.438 57.4402 131.062 57.4402Z" fill="#2E5BFF"/>
<path d="M147.441 57.0002C147.148 57.0002 146.899 56.8975 146.693 56.6922C146.488 56.4869 146.385 56.2375 146.385 55.9442V26.8162C146.385 26.4935 146.488 26.2442 146.693 26.0682C146.899 25.8629 147.148 25.7602 147.441 25.7602H151.093C151.387 25.7602 151.636 25.8629 151.841 26.0682C152.047 26.2735 152.149 26.5229 152.149 26.8162V41.8642L159.453 34.8682C159.541 34.8095 159.673 34.7069 159.849 34.5602C160.055 34.3842 160.245 34.2669 160.421 34.2082C160.597 34.1495 160.817 34.1202 161.081 34.1202H165.261C165.555 34.1202 165.789 34.2082 165.965 34.3842C166.141 34.5602 166.229 34.7949 166.229 35.0882C166.229 35.3522 166.083 35.6162 165.789 35.8802L156.813 44.3722L166.889 55.2842C167.153 55.5482 167.285 55.7975 167.285 56.0322C167.285 56.3255 167.197 56.5602 167.021 56.7362C166.845 56.9122 166.625 57.0002 166.361 57.0002H162.093C161.683 57.0002 161.375 56.9562 161.169 56.8682C160.993 56.7509 160.759 56.5455 160.465 56.2522L152.149 47.4082V55.9442C152.149 56.2375 152.047 56.4869 151.841 56.6922C151.636 56.8975 151.387 57.0002 151.093 57.0002H147.441Z" fill="#2E5BFF"/>
<path d="M179.445 57.4402C176.159 57.4402 173.549 56.5015 171.613 54.6242C169.706 52.7469 168.694 50.0775 168.577 46.6162L168.533 45.5162C168.533 41.8495 169.486 38.9602 171.393 36.8482C173.329 34.7362 175.998 33.6802 179.401 33.6802C182.891 33.6802 185.575 34.7362 187.453 36.8482C189.359 38.9602 190.313 41.7762 190.313 45.2962V46.2202C190.313 46.5135 190.21 46.7629 190.005 46.9682C189.799 47.1735 189.535 47.2762 189.213 47.2762H174.605V47.6282C174.663 49.2709 175.103 50.6349 175.925 51.7202C176.775 52.7762 177.934 53.3042 179.401 53.3042C181.073 53.3042 182.437 52.6295 183.493 51.2802C183.757 50.9575 183.962 50.7669 184.109 50.7082C184.255 50.6202 184.505 50.5762 184.857 50.5762H188.729C188.993 50.5762 189.213 50.6495 189.389 50.7962C189.594 50.9429 189.697 51.1482 189.697 51.4122C189.697 52.1162 189.271 52.9522 188.421 53.9202C187.599 54.8589 186.411 55.6802 184.857 56.3842C183.302 57.0882 181.498 57.4402 179.445 57.4402ZM184.241 43.5362V43.4482C184.241 41.7175 183.801 40.3389 182.921 39.3122C182.07 38.2562 180.897 37.7282 179.401 37.7282C177.905 37.7282 176.731 38.2562 175.881 39.3122C175.03 40.3389 174.605 41.7175 174.605 43.4482V43.5362H184.241Z" fill="#2E5BFF"/>
<path d="M205.28 57.0002C202.611 57.0002 200.602 56.3109 199.252 54.9322C197.903 53.5242 197.228 51.4709 197.228 48.7722V38.8282H193.752C193.459 38.8282 193.209 38.7255 193.004 38.5202C192.799 38.3149 192.696 38.0655 192.696 37.7722V35.1762C192.696 34.8829 192.799 34.6335 193.004 34.4282C193.209 34.2229 193.459 34.1202 193.752 34.1202H197.228V26.8162C197.228 26.4935 197.331 26.2442 197.536 26.0682C197.742 25.8629 197.991 25.7602 198.284 25.7602H201.936C202.259 25.7602 202.508 25.8629 202.684 26.0682C202.89 26.2442 202.992 26.4935 202.992 26.8162V34.1202H208.492C208.786 34.1202 209.035 34.2229 209.24 34.4282C209.446 34.6335 209.548 34.8829 209.548 35.1762V37.7722C209.548 38.0655 209.446 38.3149 209.24 38.5202C209.035 38.7255 208.786 38.8282 208.492 38.8282H202.992V48.2882C202.992 49.5495 203.212 50.5029 203.652 51.1482C204.092 51.7935 204.811 52.1162 205.808 52.1162H208.888C209.211 52.1162 209.46 52.2189 209.636 52.4242C209.842 52.6002 209.944 52.8495 209.944 53.1722V55.9442C209.944 56.2375 209.842 56.4869 209.636 56.6922C209.46 56.8975 209.211 57.0002 208.888 57.0002H205.28Z" fill="#2E5BFF"/>
<path d="M223.041 66.6802C220.753 66.6802 218.92 66.2842 217.541 65.4922C216.163 64.7002 215.195 63.7909 214.637 62.7642C214.109 61.7669 213.845 60.8869 213.845 60.1242C213.845 59.8602 213.933 59.6402 214.109 59.4642C214.315 59.2882 214.549 59.2002 214.813 59.2002H215.429C215.693 59.2002 215.899 59.2589 216.045 59.3762C216.221 59.5229 216.368 59.7722 216.485 60.1242C217.395 62.7935 219.507 64.1282 222.821 64.1282C225.344 64.1282 227.207 63.6002 228.409 62.5442C229.612 61.5175 230.213 59.6695 230.213 57.0002V53.9642C228.512 56.2815 226.048 57.4402 222.821 57.4402C219.653 57.4402 217.307 56.4135 215.781 54.3602C214.285 52.2775 213.493 49.7549 213.405 46.7922L213.361 45.5602L213.405 44.3282C213.493 41.3655 214.285 38.8575 215.781 36.8042C217.307 34.7215 219.653 33.6802 222.821 33.6802C226.019 33.6802 228.483 34.8389 230.213 37.1562V35.1322C230.213 34.8389 230.301 34.6042 230.477 34.4282C230.653 34.2229 230.888 34.1202 231.181 34.1202H231.885C232.179 34.1202 232.413 34.2229 232.589 34.4282C232.795 34.6042 232.897 34.8389 232.897 35.1322V56.5602C232.897 59.6989 232.164 62.1629 230.697 63.9522C229.231 65.7709 226.679 66.6802 223.041 66.6802ZM223.085 54.8882C225.403 54.8882 227.148 54.1255 228.321 52.6002C229.495 51.0455 230.125 49.2269 230.213 47.1442C230.243 46.8509 230.257 46.3229 230.257 45.5602C230.257 44.7975 230.243 44.2695 230.213 43.9762C230.125 41.8935 229.495 40.0895 228.321 38.5642C227.148 37.0095 225.403 36.2322 223.085 36.2322C220.709 36.2322 218.964 36.9949 217.849 38.5202C216.764 40.0162 216.177 41.9522 216.089 44.3282L216.045 45.5602L216.089 46.7922C216.177 49.1682 216.764 51.1189 217.849 52.6442C218.964 54.1402 220.709 54.8882 223.085 54.8882Z" fill="#2E5BFF"/>
<path d="M246.232 57.4402C244.824 57.4402 243.518 57.1469 242.316 56.5602C241.113 55.9735 240.145 55.1815 239.412 54.1842C238.708 53.1869 238.356 52.0869 238.356 50.8842C238.356 48.9482 239.133 47.3642 240.688 46.1322C242.272 44.9002 244.398 44.1082 247.068 43.7562L254.02 42.7882V41.2482C254.02 39.6349 253.521 38.4029 252.524 37.5522C251.556 36.6722 250.06 36.2322 248.036 36.2322C246.54 36.2322 245.308 36.5255 244.34 37.1122C243.401 37.6989 242.8 38.4029 242.536 39.2242C242.418 39.5762 242.272 39.8255 242.096 39.9722C241.949 40.0895 241.744 40.1482 241.48 40.1482H240.864C240.6 40.1482 240.365 40.0602 240.16 39.8842C239.984 39.6789 239.896 39.4442 239.896 39.1802C239.896 38.5349 240.189 37.7869 240.776 36.9362C241.362 36.0562 242.272 35.2935 243.504 34.6482C244.736 34.0029 246.246 33.6802 248.036 33.6802C251.174 33.6802 253.404 34.4282 254.724 35.9242C256.044 37.4202 256.704 39.2389 256.704 41.3802V56.0322C256.704 56.3255 256.616 56.5602 256.44 56.7362C256.264 56.9122 256.029 57.0002 255.736 57.0002H254.988C254.694 57.0002 254.46 56.9122 254.284 56.7362C254.108 56.5602 254.02 56.3255 254.02 56.0322V53.9642C253.374 54.9322 252.421 55.7535 251.16 56.4282C249.928 57.1029 248.285 57.4402 246.232 57.4402ZM246.672 54.8882C248.813 54.8882 250.573 54.1842 251.952 52.7762C253.33 51.3682 254.02 49.3442 254.02 46.7042V45.2082L248.344 46.0002C245.938 46.3229 244.12 46.8802 242.888 47.6722C241.656 48.4642 241.04 49.4615 241.04 50.6642C241.04 52.0135 241.597 53.0549 242.712 53.7882C243.856 54.5215 245.176 54.8882 246.672 54.8882Z" fill="#2E5BFF"/>
<path d="M271.147 57.0002C268.976 57.0002 267.436 56.3549 266.527 55.0642C265.617 53.7442 265.163 51.9402 265.163 49.6522V36.6722H261.731C261.437 36.6722 261.203 36.5842 261.027 36.4082C260.851 36.2322 260.763 35.9975 260.763 35.7042V35.0882C260.763 34.7949 260.851 34.5602 261.027 34.3842C261.203 34.2082 261.437 34.1202 261.731 34.1202H265.163V26.7282C265.163 26.4349 265.251 26.2002 265.427 26.0242C265.603 25.8482 265.837 25.7602 266.131 25.7602H266.879C267.172 25.7602 267.407 25.8482 267.583 26.0242C267.759 26.2002 267.847 26.4349 267.847 26.7282V34.1202H273.303C273.596 34.1202 273.831 34.2082 274.007 34.3842C274.183 34.5602 274.271 34.7949 274.271 35.0882V35.7042C274.271 35.9975 274.183 36.2322 274.007 36.4082C273.831 36.5842 273.596 36.6722 273.303 36.6722H267.847V49.4762C267.847 51.1189 268.111 52.3655 268.639 53.2162C269.196 54.0375 270.105 54.4482 271.367 54.4482H273.743C274.036 54.4482 274.271 54.5362 274.447 54.7122C274.623 54.8882 274.711 55.1229 274.711 55.4162V56.0322C274.711 56.3255 274.623 56.5602 274.447 56.7362C274.271 56.9122 274.036 57.0002 273.743 57.0002H271.147Z" fill="#2E5BFF"/>
<path d="M287.751 57.4402C284.965 57.4402 282.721 56.5309 281.019 54.7122C279.318 52.8642 278.35 50.4002 278.115 47.3202L278.071 45.5602L278.115 43.8002C278.35 40.7495 279.303 38.3002 280.975 36.4522C282.677 34.6042 284.935 33.6802 287.751 33.6802C290.802 33.6802 293.178 34.6922 294.879 36.7162C296.61 38.7402 297.475 41.5122 297.475 45.0322V45.6922C297.475 45.9855 297.373 46.2202 297.167 46.3962C296.991 46.5722 296.757 46.6602 296.463 46.6602H280.799V47.1002C280.858 48.4789 281.166 49.7695 281.723 50.9722C282.31 52.1455 283.117 53.0989 284.143 53.8322C285.17 54.5362 286.373 54.8882 287.751 54.8882C289.365 54.8882 290.67 54.5802 291.667 53.9642C292.694 53.3189 293.427 52.6735 293.867 52.0282C294.131 51.6762 294.322 51.4562 294.439 51.3682C294.586 51.2802 294.835 51.2362 295.187 51.2362H295.891C296.155 51.2362 296.375 51.3095 296.551 51.4562C296.727 51.6029 296.815 51.7935 296.815 52.0282C296.815 52.6442 296.419 53.3922 295.627 54.2722C294.865 55.1229 293.794 55.8709 292.415 56.5162C291.037 57.1322 289.482 57.4402 287.751 57.4402ZM294.791 44.1962V44.0202C294.791 41.7615 294.146 39.8989 292.855 38.4322C291.594 36.9655 289.893 36.2322 287.751 36.2322C285.61 36.2322 283.909 36.9655 282.647 38.4322C281.415 39.8989 280.799 41.7615 280.799 44.0202V44.1962H294.791Z" fill="#2E5BFF"/>
<g clip-path="url(#clip0)">
<path fill-rule="evenodd" clip-rule="evenodd" d="M30.8434 25.5534C31.8617 22.7132 33.4805 19.3776 36.0462 16.2041C39.7473 11.6247 44.0483 8.60703 46.0737 7.35261C47.9489 6.19044 48.971 7.43248 47.6707 8.40816C45.6951 9.89122 42.3993 11.9333 38.2226 17.7336C36.0003 20.8212 34.9061 23.852 34.3699 26.1768C33.2026 25.7976 32.0201 25.5852 30.8434 25.5534Z" fill="#2E5BFF"/>
<path fill-rule="evenodd" clip-rule="evenodd" d="M19.2944 32.2435C19.2021 31.0732 18.7082 22.314 23.6173 13.558C26.7133 8.03652 30.7265 4.06219 32.6465 2.3674C34.4241 0.797315 35.7312 1.92843 34.5291 3.19739C32.703 5.12522 29.5792 7.88481 26.2008 14.7858C23.4607 20.3841 23.4753 25.3697 23.6874 27.6738C21.8452 28.84 20.3789 30.3962 19.2944 32.2435Z" fill="#2E5BFF"/>
<path fill-rule="evenodd" clip-rule="evenodd" d="M46.7083 38.89C47.5877 37.738 48.2611 36.4211 48.6748 34.9926C49.0584 35.9641 49.2629 37.0234 49.249 38.1313C49.2286 39.7333 48.7518 41.2237 47.945 42.4804C47.8622 42.1794 47.7744 41.8798 47.6824 41.5807C47.3952 40.6522 47.0686 39.7538 46.7083 38.89Z" fill="#2E5BFF"/>
<path fill-rule="evenodd" clip-rule="evenodd" d="M36.9025 27.2958C37.666 27.0315 38.4701 26.8464 39.3058 26.7518C45.427 26.0589 50.9593 30.4661 51.6522 36.5872C52.0397 40.0104 50.8315 43.25 48.6205 45.5617C48.5023 44.8568 48.3589 44.1489 48.1873 43.4416C49.5483 41.5895 50.2425 39.24 49.9638 36.7784C49.3764 31.5892 44.6862 27.8528 39.497 28.4402C39.2809 28.4647 39.0673 28.4965 38.8553 28.5351C38.2189 28.071 37.5658 27.6568 36.9025 27.2958Z" fill="#2E5BFF"/>
<path fill-rule="evenodd" clip-rule="evenodd" d="M27.4473 25.1069C17.4577 27.8058 13.9331 38.4828 17.4954 50.0042C19.608 56.8393 25 61.8805 30.3392 64.5593C33.9725 66.383 37.585 67.1018 40.1465 66.6246C43.5527 65.9894 46.1785 63.6034 47.8394 60.1715C50.2188 55.2535 50.6007 48.1514 48.4909 41.3262C46.3782 34.4911 42.2002 29.2603 37.4841 26.6247C34.2438 24.813 30.7442 24.2156 27.4473 25.1069ZM18.3607 46.5307C18.5572 47.5114 18.8098 48.5037 19.1186 49.5024C21.0859 55.8683 26.1289 60.5455 31.1019 63.0409C34.3427 64.6679 37.55 65.3795 39.8351 64.9541C42.7222 64.4161 44.9026 62.3396 46.3099 59.4315C48.5319 54.8383 48.8384 48.203 46.8676 41.828C44.8996 35.4622 41.0471 30.5622 36.6551 28.1079C33.8237 26.5252 30.7716 25.9687 27.8903 26.7471C24.2516 27.7302 21.6007 29.895 19.9386 32.8106C17.7423 35.2591 16.5617 38.599 16.9604 42.121C17.1411 43.7173 17.6293 45.2053 18.3607 46.5307Z" fill="#2E5BFF"/>
<path fill-rule="evenodd" clip-rule="evenodd" d="M27.3798 28.08C20.3706 28.8734 15.3241 35.2082 16.1176 42.2175C16.911 49.2267 23.2458 54.2732 30.2551 53.4797C37.2643 52.6863 42.3108 46.3515 41.5173 39.3422C40.7239 32.333 34.3891 27.2865 27.3798 28.08ZM27.5709 29.7683C33.6482 29.0804 39.141 33.4561 39.829 39.5333C40.5169 45.6106 36.1412 51.1034 30.0639 51.7914C23.9867 52.4793 18.4939 48.1036 17.8059 42.0263C17.118 35.9491 21.4937 30.4563 27.5709 29.7683Z" fill="#2E5BFF"/>
<path fill-rule="evenodd" clip-rule="evenodd" d="M19.0771 42.7089C22.5184 45.0586 26.9896 45.8105 31.2288 44.3491C34.3395 43.2766 36.8143 41.1887 38.4094 38.5845C39.4421 43.3993 36.7372 48.3442 31.9647 49.9896C26.8074 51.7676 21.178 49.0246 19.4 43.8673C19.2677 43.4834 19.1595 43.0965 19.0771 42.7089Z" fill="#2E5BFF"/>
</g>
<defs>
<clipPath id="clip0">
<rect width="68" height="68" fill="white"/>
</clipPath>
</defs>
</svg>
