<svg width="199" height="159" viewBox="0 0 199 159" fill="none" xmlns="http://www.w3.org/2000/svg">
<path d="M10.476 147.36C7.836 147.36 5.724 146.628 4.14 145.164C2.58 143.7 1.752 141.672 1.656 139.08L1.62 137.64L1.656 136.2C1.752 133.608 2.58 131.58 4.14 130.116C5.724 128.652 7.836 127.92 10.476 127.92C12.372 127.92 13.968 128.256 15.264 128.928C16.584 129.6 17.556 130.428 18.18 131.412C18.828 132.372 19.176 133.296 19.224 134.184C19.248 134.424 19.164 134.628 18.972 134.796C18.804 134.964 18.6 135.048 18.36 135.048H15.156C14.892 135.048 14.7 135 14.58 134.904C14.46 134.784 14.34 134.58 14.22 134.292C13.86 133.38 13.38 132.72 12.78 132.312C12.204 131.904 11.46 131.7 10.548 131.7C9.324 131.7 8.364 132.084 7.668 132.852C6.996 133.62 6.636 134.796 6.588 136.38L6.552 137.712L6.588 138.9C6.732 142.02 8.052 143.58 10.548 143.58C11.484 143.58 12.24 143.388 12.816 143.004C13.392 142.596 13.86 141.924 14.22 140.988C14.316 140.724 14.424 140.532 14.544 140.412C14.688 140.292 14.892 140.232 15.156 140.232H18.36C18.6 140.232 18.804 140.316 18.972 140.484C19.164 140.652 19.248 140.856 19.224 141.096C19.176 141.936 18.84 142.848 18.216 143.832C17.592 144.792 16.632 145.62 15.336 146.316C14.04 147.012 12.42 147.36 10.476 147.36ZM23.8416 147C23.6016 147 23.3976 146.916 23.2296 146.748C23.0616 146.58 22.9776 146.376 22.9776 146.136V129.18C22.9776 128.916 23.0616 128.7 23.2296 128.532C23.3976 128.364 23.6016 128.28 23.8416 128.28H26.7936C27.0576 128.28 27.2736 128.364 27.4416 128.532C27.6096 128.7 27.6936 128.916 27.6936 129.18V130.656C28.8936 129.072 30.6216 128.28 32.8776 128.28H34.3896C34.6536 128.28 34.8576 128.364 35.0016 128.532C35.1696 128.676 35.2536 128.88 35.2536 129.144V131.772C35.2536 132.012 35.1696 132.216 35.0016 132.384C34.8576 132.552 34.6536 132.636 34.3896 132.636H31.5456C30.4176 132.636 29.5296 132.96 28.8816 133.608C28.2336 134.256 27.9096 135.144 27.9096 136.272V146.136C27.9096 146.376 27.8256 146.58 27.6576 146.748C27.4896 146.916 27.2856 147 27.0456 147H23.8416ZM38.7796 125.22C38.5396 125.22 38.3356 125.136 38.1676 124.968C37.9996 124.8 37.9156 124.596 37.9156 124.356V121.728C37.9156 121.464 37.9996 121.248 38.1676 121.08C38.3356 120.912 38.5396 120.828 38.7796 120.828H42.0916C42.3556 120.828 42.5716 120.912 42.7396 121.08C42.9076 121.248 42.9916 121.464 42.9916 121.728V124.356C42.9916 124.596 42.8956 124.8 42.7036 124.968C42.5356 125.136 42.3316 125.22 42.0916 125.22H38.7796ZM38.9236 147C38.6836 147 38.4796 146.916 38.3116 146.748C38.1436 146.58 38.0596 146.376 38.0596 146.136V129.144C38.0596 128.88 38.1436 128.676 38.3116 128.532C38.4796 128.364 38.6836 128.28 38.9236 128.28H41.9836C42.2236 128.28 42.4276 128.364 42.5956 128.532C42.7636 128.7 42.8476 128.904 42.8476 129.144V146.136C42.8476 146.376 42.7636 146.58 42.5956 146.748C42.4276 146.916 42.2236 147 41.9836 147H38.9236ZM55.6869 147.36C53.0469 147.36 50.9349 146.628 49.3509 145.164C47.7909 143.7 46.9629 141.672 46.8669 139.08L46.8309 137.64L46.8669 136.2C46.9629 133.608 47.7909 131.58 49.3509 130.116C50.9349 128.652 53.0469 127.92 55.6869 127.92C57.5829 127.92 59.1789 128.256 60.4749 128.928C61.7949 129.6 62.7669 130.428 63.3909 131.412C64.0389 132.372 64.3869 133.296 64.4349 134.184C64.4589 134.424 64.3749 134.628 64.1829 134.796C64.0149 134.964 63.8109 135.048 63.5709 135.048H60.3669C60.1029 135.048 59.9109 135 59.7909 134.904C59.6709 134.784 59.5509 134.58 59.4309 134.292C59.0709 133.38 58.5909 132.72 57.9909 132.312C57.4149 131.904 56.6709 131.7 55.7589 131.7C54.5349 131.7 53.5749 132.084 52.8789 132.852C52.2069 133.62 51.8469 134.796 51.7989 136.38L51.7629 137.712L51.7989 138.9C51.9429 142.02 53.2629 143.58 55.7589 143.58C56.6949 143.58 57.4509 143.388 58.0269 143.004C58.6029 142.596 59.0709 141.924 59.4309 140.988C59.5269 140.724 59.6349 140.532 59.7549 140.412C59.8989 140.292 60.1029 140.232 60.3669 140.232H63.5709C63.8109 140.232 64.0149 140.316 64.1829 140.484C64.3749 140.652 64.4589 140.856 64.4349 141.096C64.3869 141.936 64.0509 142.848 63.4269 143.832C62.8029 144.792 61.8429 145.62 60.5469 146.316C59.2509 147.012 57.6309 147.36 55.6869 147.36ZM69.0885 147C68.8485 147 68.6445 146.916 68.4765 146.748C68.3085 146.58 68.2245 146.376 68.2245 146.136V122.304C68.2245 122.04 68.3085 121.836 68.4765 121.692C68.6445 121.524 68.8485 121.44 69.0885 121.44H72.0765C72.3165 121.44 72.5205 121.524 72.6885 121.692C72.8565 121.86 72.9405 122.064 72.9405 122.304V134.616L78.9165 128.892C78.9885 128.844 79.0965 128.76 79.2405 128.64C79.4085 128.496 79.5645 128.4 79.7085 128.352C79.8525 128.304 80.0325 128.28 80.2485 128.28H83.6685C83.9085 128.28 84.1005 128.352 84.2445 128.496C84.3885 128.64 84.4605 128.832 84.4605 129.072C84.4605 129.288 84.3405 129.504 84.1005 129.72L76.7565 136.668L85.0005 145.596C85.2165 145.812 85.3245 146.016 85.3245 146.208C85.3245 146.448 85.2525 146.64 85.1085 146.784C84.9645 146.928 84.7845 147 84.5685 147H81.0765C80.7405 147 80.4885 146.964 80.3205 146.892C80.1765 146.796 79.9845 146.628 79.7445 146.388L72.9405 139.152V146.136C72.9405 146.376 72.8565 146.58 72.6885 146.748C72.5205 146.916 72.3165 147 72.0765 147H69.0885ZM95.2729 147.36C92.5849 147.36 90.4489 146.592 88.8649 145.056C87.3049 143.52 86.4769 141.336 86.3809 138.504L86.3449 137.604C86.3449 134.604 87.1249 132.24 88.6849 130.512C90.2689 128.784 92.4529 127.92 95.2369 127.92C98.0929 127.92 100.289 128.784 101.825 130.512C103.385 132.24 104.165 134.544 104.165 137.424V138.18C104.165 138.42 104.081 138.624 103.913 138.792C103.745 138.96 103.529 139.044 103.265 139.044H91.3129V139.332C91.3609 140.676 91.7209 141.792 92.3929 142.68C93.0889 143.544 94.0369 143.976 95.2369 143.976C96.6049 143.976 97.7209 143.424 98.5849 142.32C98.8009 142.056 98.9689 141.9 99.0889 141.852C99.2089 141.78 99.4129 141.744 99.7009 141.744H102.869C103.085 141.744 103.265 141.804 103.409 141.924C103.577 142.044 103.661 142.212 103.661 142.428C103.661 143.004 103.313 143.688 102.617 144.48C101.945 145.248 100.973 145.92 99.7009 146.496C98.4289 147.072 96.9529 147.36 95.2729 147.36ZM99.1969 135.984V135.912C99.1969 134.496 98.8369 133.368 98.1169 132.528C97.4209 131.664 96.4609 131.232 95.2369 131.232C94.0129 131.232 93.0529 131.664 92.3569 132.528C91.6609 133.368 91.3129 134.496 91.3129 135.912V135.984H99.1969ZM116.411 147C114.227 147 112.583 146.436 111.479 145.308C110.375 144.156 109.823 142.476 109.823 140.268V132.132H106.979C106.739 132.132 106.535 132.048 106.367 131.88C106.199 131.712 106.115 131.508 106.115 131.268V129.144C106.115 128.904 106.199 128.7 106.367 128.532C106.535 128.364 106.739 128.28 106.979 128.28H109.823V122.304C109.823 122.04 109.907 121.836 110.075 121.692C110.243 121.524 110.447 121.44 110.687 121.44H113.675C113.939 121.44 114.143 121.524 114.287 121.692C114.455 121.836 114.539 122.04 114.539 122.304V128.28H119.039C119.279 128.28 119.483 128.364 119.651 128.532C119.819 128.7 119.903 128.904 119.903 129.144V131.268C119.903 131.508 119.819 131.712 119.651 131.88C119.483 132.048 119.279 132.132 119.039 132.132H114.539V139.872C114.539 140.904 114.719 141.684 115.079 142.212C115.439 142.74 116.027 143.004 116.843 143.004H119.363C119.627 143.004 119.831 143.088 119.975 143.256C120.143 143.4 120.227 143.604 120.227 143.868V146.136C120.227 146.376 120.143 146.58 119.975 146.748C119.831 146.916 119.627 147 119.363 147H116.411ZM130.943 154.92C129.071 154.92 127.571 154.596 126.443 153.948C125.315 153.3 124.523 152.556 124.067 151.716C123.635 150.9 123.419 150.18 123.419 149.556C123.419 149.34 123.491 149.16 123.635 149.016C123.803 148.872 123.995 148.8 124.211 148.8H124.715C124.931 148.8 125.099 148.848 125.219 148.944C125.363 149.064 125.483 149.268 125.579 149.556C126.323 151.74 128.051 152.832 130.763 152.832C132.827 152.832 134.351 152.4 135.335 151.536C136.319 150.696 136.811 149.184 136.811 147V144.516C135.419 146.412 133.403 147.36 130.763 147.36C128.171 147.36 126.251 146.52 125.003 144.84C123.779 143.136 123.131 141.072 123.059 138.648L123.023 137.64L123.059 136.632C123.131 134.208 123.779 132.156 125.003 130.476C126.251 128.772 128.171 127.92 130.763 127.92C133.379 127.92 135.395 128.868 136.811 130.764V129.108C136.811 128.868 136.883 128.676 137.027 128.532C137.171 128.364 137.363 128.28 137.603 128.28H138.179C138.419 128.28 138.611 128.364 138.755 128.532C138.923 128.676 139.007 128.868 139.007 129.108V146.64C139.007 149.208 138.407 151.224 137.207 152.688C136.007 154.176 133.919 154.92 130.943 154.92ZM130.979 145.272C132.875 145.272 134.303 144.648 135.263 143.4C136.223 142.128 136.739 140.64 136.811 138.936C136.835 138.696 136.847 138.264 136.847 137.64C136.847 137.016 136.835 136.584 136.811 136.344C136.739 134.64 136.223 133.164 135.263 131.916C134.303 130.644 132.875 130.008 130.979 130.008C129.035 130.008 127.607 130.632 126.695 131.88C125.807 133.104 125.327 134.688 125.255 136.632L125.219 137.64L125.255 138.648C125.327 140.592 125.807 142.188 126.695 143.436C127.607 144.66 129.035 145.272 130.979 145.272ZM149.917 147.36C148.765 147.36 147.697 147.12 146.713 146.64C145.729 146.16 144.937 145.512 144.337 144.696C143.761 143.88 143.473 142.98 143.473 141.996C143.473 140.412 144.109 139.116 145.381 138.108C146.677 137.1 148.417 136.452 150.601 136.164L156.289 135.372V134.112C156.289 132.792 155.881 131.784 155.065 131.088C154.273 130.368 153.049 130.008 151.393 130.008C150.169 130.008 149.161 130.248 148.369 130.728C147.601 131.208 147.109 131.784 146.893 132.456C146.797 132.744 146.677 132.948 146.533 133.068C146.413 133.164 146.245 133.212 146.029 133.212H145.525C145.309 133.212 145.117 133.14 144.949 132.996C144.805 132.828 144.733 132.636 144.733 132.42C144.733 131.892 144.973 131.28 145.453 130.584C145.933 129.864 146.677 129.24 147.685 128.712C148.693 128.184 149.929 127.92 151.393 127.92C153.961 127.92 155.785 128.532 156.865 129.756C157.945 130.98 158.485 132.468 158.485 134.22V146.208C158.485 146.448 158.413 146.64 158.269 146.784C158.125 146.928 157.933 147 157.693 147H157.081C156.841 147 156.649 146.928 156.505 146.784C156.361 146.64 156.289 146.448 156.289 146.208V144.516C155.761 145.308 154.981 145.98 153.949 146.532C152.941 147.084 151.597 147.36 149.917 147.36ZM150.277 145.272C152.029 145.272 153.469 144.696 154.597 143.544C155.725 142.392 156.289 140.736 156.289 138.576V137.352L151.645 138C149.677 138.264 148.189 138.72 147.181 139.368C146.173 140.016 145.669 140.832 145.669 141.816C145.669 142.92 146.125 143.772 147.037 144.372C147.973 144.972 149.053 145.272 150.277 145.272ZM170.302 147C168.526 147 167.266 146.472 166.522 145.416C165.778 144.336 165.406 142.86 165.406 140.988V130.368H162.598C162.358 130.368 162.166 130.296 162.022 130.152C161.878 130.008 161.806 129.816 161.806 129.576V129.072C161.806 128.832 161.878 128.64 162.022 128.496C162.166 128.352 162.358 128.28 162.598 128.28H165.406V122.232C165.406 121.992 165.478 121.8 165.622 121.656C165.766 121.512 165.958 121.44 166.198 121.44H166.81C167.05 121.44 167.242 121.512 167.386 121.656C167.53 121.8 167.602 121.992 167.602 122.232V128.28H172.066C172.306 128.28 172.498 128.352 172.642 128.496C172.786 128.64 172.858 128.832 172.858 129.072V129.576C172.858 129.816 172.786 130.008 172.642 130.152C172.498 130.296 172.306 130.368 172.066 130.368H167.602V140.844C167.602 142.188 167.818 143.208 168.25 143.904C168.706 144.576 169.45 144.912 170.482 144.912H172.426C172.666 144.912 172.858 144.984 173.002 145.128C173.146 145.272 173.218 145.464 173.218 145.704V146.208C173.218 146.448 173.146 146.64 173.002 146.784C172.858 146.928 172.666 147 172.426 147H170.302ZM183.887 147.36C181.607 147.36 179.771 146.616 178.379 145.128C176.987 143.616 176.195 141.6 176.003 139.08L175.967 137.64L176.003 136.2C176.195 133.704 176.975 131.7 178.343 130.188C179.735 128.676 181.583 127.92 183.887 127.92C186.383 127.92 188.327 128.748 189.719 130.404C191.135 132.06 191.843 134.328 191.843 137.208V137.748C191.843 137.988 191.759 138.18 191.591 138.324C191.447 138.468 191.255 138.54 191.015 138.54H178.199V138.9C178.247 140.028 178.499 141.084 178.955 142.068C179.435 143.028 180.095 143.808 180.935 144.408C181.775 144.984 182.759 145.272 183.887 145.272C185.207 145.272 186.275 145.02 187.091 144.516C187.931 143.988 188.531 143.46 188.891 142.932C189.107 142.644 189.263 142.464 189.359 142.392C189.479 142.32 189.683 142.284 189.971 142.284H190.547C190.763 142.284 190.943 142.344 191.087 142.464C191.231 142.584 191.303 142.74 191.303 142.932C191.303 143.436 190.979 144.048 190.331 144.768C189.707 145.464 188.831 146.076 187.703 146.604C186.575 147.108 185.303 147.36 183.887 147.36ZM189.647 136.524V136.38C189.647 134.532 189.119 133.008 188.063 131.808C187.031 130.608 185.639 130.008 183.887 130.008C182.135 130.008 180.743 130.608 179.711 131.808C178.703 133.008 178.199 134.532 178.199 136.38V136.524H189.647Z" fill="#2E5BFF"/>
<g clip-path="url(#clip0)">
<path fill-rule="evenodd" clip-rule="evenodd" d="M88.5331 40.209C90.1353 35.7399 92.6826 30.4912 96.7199 25.4976C102.544 18.2918 109.311 13.5434 112.498 11.5695C115.449 9.74083 117.057 11.6952 115.011 13.2305C111.903 15.5641 106.717 18.7773 100.144 27.9043C96.6476 32.7627 94.9259 37.5319 94.0821 41.1899C92.2454 40.5933 90.3846 40.2591 88.5331 40.209Z" fill="#2E5BFF"/>
<path fill-rule="evenodd" clip-rule="evenodd" d="M70.3603 50.7361C70.2151 48.8946 69.4379 35.1118 77.1626 21.3339C82.0342 12.6457 88.3491 6.39197 91.3702 3.72517C94.1674 1.2546 96.2242 3.03445 94.3326 5.03119C91.4592 8.06468 86.5437 12.407 81.2277 23.2658C76.9161 32.075 76.9391 39.9199 77.2728 43.5456C74.3741 45.3806 72.0668 47.8293 70.3603 50.7361Z" fill="#2E5BFF"/>
<path fill-rule="evenodd" clip-rule="evenodd" d="M113.497 61.1946C114.881 59.3818 115.94 57.3097 116.591 55.0619C117.195 56.5905 117.517 58.2573 117.495 60.0007C117.463 62.5216 116.712 64.8667 115.443 66.8442C115.312 66.3705 115.174 65.8991 115.03 65.4285C114.578 63.9675 114.064 62.5538 113.497 61.1946Z" fill="#2E5BFF"/>
<path fill-rule="evenodd" clip-rule="evenodd" d="M98.0671 42.9507C99.2685 42.5349 100.534 42.2437 101.849 42.0948C111.481 41.0045 120.186 47.9392 121.276 57.5711C121.886 62.9575 119.985 68.0551 116.506 71.6926C116.32 70.5835 116.094 69.4696 115.824 68.3566C117.966 65.4422 119.058 61.7453 118.62 57.8718C117.695 49.7065 110.315 43.8272 102.15 44.7515C101.81 44.79 101.474 44.8401 101.14 44.9008C100.138 44.1706 99.1108 43.5187 98.0671 42.9507Z" fill="#2E5BFF"/>
<path fill-rule="evenodd" clip-rule="evenodd" d="M83.1891 39.5065C67.4703 43.7533 61.9241 60.5538 67.5295 78.6831C70.8538 89.4384 79.3383 97.3708 87.7397 101.586C93.4568 104.456 99.1412 105.587 103.172 104.836C108.531 103.836 112.663 100.082 115.277 94.6816C119.021 86.943 119.622 75.7676 116.302 65.028C112.977 54.2727 106.403 46.042 98.9823 41.8947C93.8836 39.0439 88.3768 38.104 83.1891 39.5065ZM68.8912 73.2174C69.2004 74.7606 69.5978 76.3219 70.0837 77.8935C73.1792 87.9105 81.1145 95.2701 88.9397 99.1967C94.0392 101.757 99.086 102.877 102.682 102.207C107.225 101.361 110.655 98.0932 112.87 93.5172C116.366 86.2896 116.849 75.8488 113.748 65.8176C110.651 55.8008 104.589 48.0905 97.6778 44.2286C93.2226 41.7382 88.42 40.8625 83.8862 42.0874C78.1605 43.6342 73.9894 47.0407 71.374 51.6284C67.918 55.4813 66.0603 60.7367 66.6877 66.2786C66.972 68.7905 67.7402 71.1319 68.8912 73.2174Z" fill="#2E5BFF"/>
<path fill-rule="evenodd" clip-rule="evenodd" d="M83.0829 44.1846C72.0536 45.4331 64.1129 55.4012 65.3614 66.4304C66.6099 77.4597 76.5779 85.4004 87.6072 84.1519C98.6364 82.9034 106.577 72.9354 105.329 61.9061C104.08 50.8769 94.1121 42.9361 83.0829 44.1846ZM83.3836 46.8413C92.9464 45.7588 101.589 52.6441 102.672 62.2069C103.754 71.7696 96.8692 80.4127 87.3064 81.4952C77.7437 82.5777 69.1006 75.6924 68.0181 66.1297C66.9356 56.5669 73.8209 47.9238 83.3836 46.8413Z" fill="#2E5BFF"/>
<path fill-rule="evenodd" clip-rule="evenodd" d="M70.0183 67.2037C75.4333 70.9011 82.4689 72.0842 89.1394 69.7845C94.0342 68.097 97.9285 64.8116 100.438 60.7138C102.063 68.29 97.807 76.0711 90.2974 78.6601C82.1823 81.4578 73.3243 77.1416 70.5265 69.0265C70.3183 68.4224 70.148 67.8137 70.0183 67.2037Z" fill="#2E5BFF"/>
</g>
<defs>
<clipPath id="clip0">
<rect x="40" width="107" height="107" fill="white"/>
</clipPath>
</defs>
</svg>
