<svg width="163" height="119" viewBox="0 0 163 119" fill="none" xmlns="http://www.w3.org/2000/svg">
<path d="M8.73 112.54C6.53 112.54 4.77 111.93 3.45 110.71C2.15 109.49 1.46 107.8 1.38 105.64L1.35 104.44L1.38 103.24C1.46 101.08 2.15 99.3902 3.45 98.1702C4.77 96.9502 6.53 96.3402 8.73 96.3402C10.31 96.3402 11.64 96.6202 12.72 97.1802C13.82 97.7402 14.63 98.4302 15.15 99.2502C15.69 100.05 15.98 100.82 16.02 101.56C16.04 101.76 15.97 101.93 15.81 102.07C15.67 102.21 15.5 102.28 15.3 102.28H12.63C12.41 102.28 12.25 102.24 12.15 102.16C12.05 102.06 11.95 101.89 11.85 101.65C11.55 100.89 11.15 100.34 10.65 100C10.17 99.6602 9.55 99.4902 8.79 99.4902C7.77 99.4902 6.97 99.8102 6.39 100.45C5.83 101.09 5.53 102.07 5.49 103.39L5.46 104.5L5.49 105.49C5.61 108.09 6.71 109.39 8.79 109.39C9.57 109.39 10.2 109.23 10.68 108.91C11.16 108.57 11.55 108.01 11.85 107.23C11.93 107.01 12.02 106.85 12.12 106.75C12.24 106.65 12.41 106.6 12.63 106.6H15.3C15.5 106.6 15.67 106.67 15.81 106.81C15.97 106.95 16.04 107.12 16.02 107.32C15.98 108.02 15.7 108.78 15.18 109.6C14.66 110.4 13.86 111.09 12.78 111.67C11.7 112.25 10.35 112.54 8.73 112.54ZM19.868 112.24C19.668 112.24 19.498 112.17 19.358 112.03C19.218 111.89 19.148 111.72 19.148 111.52V97.3902C19.148 97.1702 19.218 96.9902 19.358 96.8502C19.498 96.7102 19.668 96.6402 19.868 96.6402H22.328C22.548 96.6402 22.728 96.7102 22.868 96.8502C23.008 96.9902 23.078 97.1702 23.078 97.3902V98.6202C24.078 97.3002 25.518 96.6402 27.398 96.6402H28.658C28.878 96.6402 29.048 96.7102 29.168 96.8502C29.308 96.9702 29.378 97.1402 29.378 97.3602V99.5502C29.378 99.7502 29.308 99.9202 29.168 100.06C29.048 100.2 28.878 100.27 28.658 100.27H26.288C25.348 100.27 24.608 100.54 24.068 101.08C23.528 101.62 23.258 102.36 23.258 103.3V111.52C23.258 111.72 23.188 111.89 23.048 112.03C22.908 112.17 22.738 112.24 22.538 112.24H19.868ZM32.3163 94.0902C32.1163 94.0902 31.9463 94.0202 31.8063 93.8802C31.6663 93.7402 31.5963 93.5702 31.5963 93.3702V91.1802C31.5963 90.9602 31.6663 90.7802 31.8063 90.6402C31.9463 90.5002 32.1163 90.4302 32.3163 90.4302H35.0763C35.2963 90.4302 35.4763 90.5002 35.6163 90.6402C35.7563 90.7802 35.8263 90.9602 35.8263 91.1802V93.3702C35.8263 93.5702 35.7463 93.7402 35.5863 93.8802C35.4463 94.0202 35.2763 94.0902 35.0763 94.0902H32.3163ZM32.4363 112.24C32.2363 112.24 32.0663 112.17 31.9263 112.03C31.7863 111.89 31.7163 111.72 31.7163 111.52V97.3602C31.7163 97.1402 31.7863 96.9702 31.9263 96.8502C32.0663 96.7102 32.2363 96.6402 32.4363 96.6402H34.9863C35.1863 96.6402 35.3563 96.7102 35.4963 96.8502C35.6363 96.9902 35.7063 97.1602 35.7063 97.3602V111.52C35.7063 111.72 35.6363 111.89 35.4963 112.03C35.3563 112.17 35.1863 112.24 34.9863 112.24H32.4363ZM46.4058 112.54C44.2058 112.54 42.4458 111.93 41.1258 110.71C39.8258 109.49 39.1358 107.8 39.0558 105.64L39.0258 104.44L39.0558 103.24C39.1358 101.08 39.8258 99.3902 41.1258 98.1702C42.4458 96.9502 44.2058 96.3402 46.4058 96.3402C47.9858 96.3402 49.3158 96.6202 50.3958 97.1802C51.4958 97.7402 52.3058 98.4302 52.8258 99.2502C53.3658 100.05 53.6558 100.82 53.6958 101.56C53.7158 101.76 53.6458 101.93 53.4858 102.07C53.3458 102.21 53.1758 102.28 52.9758 102.28H50.3058C50.0858 102.28 49.9258 102.24 49.8258 102.16C49.7258 102.06 49.6258 101.89 49.5258 101.65C49.2258 100.89 48.8258 100.34 48.3258 100C47.8458 99.6602 47.2258 99.4902 46.4658 99.4902C45.4458 99.4902 44.6458 99.8102 44.0658 100.45C43.5058 101.09 43.2058 102.07 43.1658 103.39L43.1358 104.5L43.1658 105.49C43.2858 108.09 44.3858 109.39 46.4658 109.39C47.2458 109.39 47.8758 109.23 48.3558 108.91C48.8358 108.57 49.2258 108.01 49.5258 107.23C49.6058 107.01 49.6958 106.85 49.7958 106.75C49.9158 106.65 50.0858 106.6 50.3058 106.6H52.9758C53.1758 106.6 53.3458 106.67 53.4858 106.81C53.6458 106.95 53.7158 107.12 53.6958 107.32C53.6558 108.02 53.3758 108.78 52.8558 109.6C52.3358 110.4 51.5358 111.09 50.4558 111.67C49.3758 112.25 48.0258 112.54 46.4058 112.54ZM57.5738 112.24C57.3738 112.24 57.2038 112.17 57.0638 112.03C56.9238 111.89 56.8538 111.72 56.8538 111.52V91.6602C56.8538 91.4402 56.9238 91.2702 57.0638 91.1502C57.2038 91.0102 57.3738 90.9402 57.5738 90.9402H60.0638C60.2638 90.9402 60.4338 91.0102 60.5738 91.1502C60.7138 91.2902 60.7838 91.4602 60.7838 91.6602V101.92L65.7638 97.1502C65.8238 97.1102 65.9138 97.0402 66.0338 96.9402C66.1738 96.8202 66.3038 96.7402 66.4238 96.7002C66.5438 96.6602 66.6938 96.6402 66.8738 96.6402H69.7238C69.9238 96.6402 70.0838 96.7002 70.2038 96.8202C70.3238 96.9402 70.3838 97.1002 70.3838 97.3002C70.3838 97.4802 70.2838 97.6602 70.0838 97.8402L63.9638 103.63L70.8338 111.07C71.0138 111.25 71.1038 111.42 71.1038 111.58C71.1038 111.78 71.0438 111.94 70.9238 112.06C70.8038 112.18 70.6538 112.24 70.4738 112.24H67.5638C67.2838 112.24 67.0738 112.21 66.9338 112.15C66.8138 112.07 66.6538 111.93 66.4538 111.73L60.7838 105.7V111.52C60.7838 111.72 60.7138 111.89 60.5738 112.03C60.4338 112.17 60.2638 112.24 60.0638 112.24H57.5738ZM79.3941 112.54C77.1541 112.54 75.3741 111.9 74.0541 110.62C72.7541 109.34 72.0641 107.52 71.9841 105.16L71.9541 104.41C71.9541 101.91 72.6041 99.9402 73.9041 98.5002C75.2241 97.0602 77.0441 96.3402 79.3641 96.3402C81.7441 96.3402 83.5741 97.0602 84.8541 98.5002C86.1541 99.9402 86.8041 101.86 86.8041 104.26V104.89C86.8041 105.09 86.7341 105.26 86.5941 105.4C86.4541 105.54 86.2741 105.61 86.0541 105.61H76.0941V105.85C76.1341 106.97 76.4341 107.9 76.9941 108.64C77.5741 109.36 78.3641 109.72 79.3641 109.72C80.5041 109.72 81.4341 109.26 82.1541 108.34C82.3341 108.12 82.4741 107.99 82.5741 107.95C82.6741 107.89 82.8441 107.86 83.0841 107.86H85.7241C85.9041 107.86 86.0541 107.91 86.1741 108.01C86.3141 108.11 86.3841 108.25 86.3841 108.43C86.3841 108.91 86.0941 109.48 85.5141 110.14C84.9541 110.78 84.1441 111.34 83.0841 111.82C82.0241 112.3 80.7941 112.54 79.3941 112.54ZM82.6641 103.06V103C82.6641 101.82 82.3641 100.88 81.7641 100.18C81.1841 99.4602 80.3841 99.1002 79.3641 99.1002C78.3441 99.1002 77.5441 99.4602 76.9641 100.18C76.3841 100.88 76.0941 101.82 76.0941 103V103.06H82.6641ZM97.0092 112.24C95.1892 112.24 93.8192 111.77 92.8992 110.83C91.9792 109.87 91.5192 108.47 91.5192 106.63V99.8502H89.1492C88.9492 99.8502 88.7792 99.7802 88.6392 99.6402C88.4992 99.5002 88.4292 99.3302 88.4292 99.1302V97.3602C88.4292 97.1602 88.4992 96.9902 88.6392 96.8502C88.7792 96.7102 88.9492 96.6402 89.1492 96.6402H91.5192V91.6602C91.5192 91.4402 91.5892 91.2702 91.7292 91.1502C91.8692 91.0102 92.0392 90.9402 92.2392 90.9402H94.7292C94.9492 90.9402 95.1192 91.0102 95.2392 91.1502C95.3792 91.2702 95.4492 91.4402 95.4492 91.6602V96.6402H99.1992C99.3992 96.6402 99.5692 96.7102 99.7092 96.8502C99.8492 96.9902 99.9192 97.1602 99.9192 97.3602V99.1302C99.9192 99.3302 99.8492 99.5002 99.7092 99.6402C99.5692 99.7802 99.3992 99.8502 99.1992 99.8502H95.4492V106.3C95.4492 107.16 95.5992 107.81 95.8992 108.25C96.1992 108.69 96.6892 108.91 97.3692 108.91H99.4692C99.6892 108.91 99.8592 108.98 99.9792 109.12C100.119 109.24 100.189 109.41 100.189 109.63V111.52C100.189 111.72 100.119 111.89 99.9792 112.03C99.8592 112.17 99.6892 112.24 99.4692 112.24H97.0092ZM109.119 118.84C107.559 118.84 106.309 118.57 105.369 118.03C104.429 117.49 103.769 116.87 103.389 116.17C103.029 115.49 102.849 114.89 102.849 114.37C102.849 114.19 102.909 114.04 103.029 113.92C103.169 113.8 103.329 113.74 103.509 113.74H103.929C104.109 113.74 104.249 113.78 104.349 113.86C104.469 113.96 104.569 114.13 104.649 114.37C105.269 116.19 106.709 117.1 108.969 117.1C110.689 117.1 111.959 116.74 112.779 116.02C113.599 115.32 114.009 114.06 114.009 112.24V110.17C112.849 111.75 111.169 112.54 108.969 112.54C106.809 112.54 105.209 111.84 104.169 110.44C103.149 109.02 102.609 107.3 102.549 105.28L102.519 104.44L102.549 103.6C102.609 101.58 103.149 99.8702 104.169 98.4702C105.209 97.0502 106.809 96.3402 108.969 96.3402C111.149 96.3402 112.829 97.1302 114.009 98.7102V97.3302C114.009 97.1302 114.069 96.9702 114.189 96.8502C114.309 96.7102 114.469 96.6402 114.669 96.6402H115.149C115.349 96.6402 115.509 96.7102 115.629 96.8502C115.769 96.9702 115.839 97.1302 115.839 97.3302V111.94C115.839 114.08 115.339 115.76 114.339 116.98C113.339 118.22 111.599 118.84 109.119 118.84ZM109.149 110.8C110.729 110.8 111.919 110.28 112.719 109.24C113.519 108.18 113.949 106.94 114.009 105.52C114.029 105.32 114.039 104.96 114.039 104.44C114.039 103.92 114.029 103.56 114.009 103.36C113.949 101.94 113.519 100.71 112.719 99.6702C111.919 98.6102 110.729 98.0802 109.149 98.0802C107.529 98.0802 106.339 98.6002 105.579 99.6402C104.839 100.66 104.439 101.98 104.379 103.6L104.349 104.44L104.379 105.28C104.439 106.9 104.839 108.23 105.579 109.27C106.339 110.29 107.529 110.8 109.149 110.8ZM124.931 112.54C123.971 112.54 123.081 112.34 122.261 111.94C121.441 111.54 120.781 111 120.281 110.32C119.801 109.64 119.561 108.89 119.561 108.07C119.561 106.75 120.091 105.67 121.151 104.83C122.231 103.99 123.681 103.45 125.501 103.21L130.241 102.55V101.5C130.241 100.4 129.901 99.5602 129.221 98.9802C128.561 98.3802 127.541 98.0802 126.161 98.0802C125.141 98.0802 124.301 98.2802 123.641 98.6802C123.001 99.0802 122.591 99.5602 122.411 100.12C122.331 100.36 122.231 100.53 122.111 100.63C122.011 100.71 121.871 100.75 121.691 100.75H121.271C121.091 100.75 120.931 100.69 120.791 100.57C120.671 100.43 120.611 100.27 120.611 100.09C120.611 99.6502 120.811 99.1402 121.211 98.5602C121.611 97.9602 122.231 97.4402 123.071 97.0002C123.911 96.5602 124.941 96.3402 126.161 96.3402C128.301 96.3402 129.821 96.8502 130.721 97.8702C131.621 98.8902 132.071 100.13 132.071 101.59V111.58C132.071 111.78 132.011 111.94 131.891 112.06C131.771 112.18 131.611 112.24 131.411 112.24H130.901C130.701 112.24 130.541 112.18 130.421 112.06C130.301 111.94 130.241 111.78 130.241 111.58V110.17C129.801 110.83 129.151 111.39 128.291 111.85C127.451 112.31 126.331 112.54 124.931 112.54ZM125.231 110.8C126.691 110.8 127.891 110.32 128.831 109.36C129.771 108.4 130.241 107.02 130.241 105.22V104.2L126.371 104.74C124.731 104.96 123.491 105.34 122.651 105.88C121.811 106.42 121.391 107.1 121.391 107.92C121.391 108.84 121.771 109.55 122.531 110.05C123.311 110.55 124.211 110.8 125.231 110.8ZM141.918 112.24C140.438 112.24 139.388 111.8 138.768 110.92C138.148 110.02 137.838 108.79 137.838 107.23V98.3802H135.498C135.298 98.3802 135.138 98.3202 135.018 98.2002C134.898 98.0802 134.838 97.9202 134.838 97.7202V97.3002C134.838 97.1002 134.898 96.9402 135.018 96.8202C135.138 96.7002 135.298 96.6402 135.498 96.6402H137.838V91.6002C137.838 91.4002 137.898 91.2402 138.018 91.1202C138.138 91.0002 138.298 90.9402 138.498 90.9402H139.008C139.208 90.9402 139.368 91.0002 139.488 91.1202C139.608 91.2402 139.668 91.4002 139.668 91.6002V96.6402H143.388C143.588 96.6402 143.748 96.7002 143.868 96.8202C143.988 96.9402 144.048 97.1002 144.048 97.3002V97.7202C144.048 97.9202 143.988 98.0802 143.868 98.2002C143.748 98.3202 143.588 98.3802 143.388 98.3802H139.668V107.11C139.668 108.23 139.848 109.08 140.208 109.66C140.588 110.22 141.208 110.5 142.068 110.5H143.688C143.888 110.5 144.048 110.56 144.168 110.68C144.288 110.8 144.348 110.96 144.348 111.16V111.58C144.348 111.78 144.288 111.94 144.168 112.06C144.048 112.18 143.888 112.24 143.688 112.24H141.918ZM153.24 112.54C151.34 112.54 149.81 111.92 148.65 110.68C147.49 109.42 146.83 107.74 146.67 105.64L146.64 104.44L146.67 103.24C146.83 101.16 147.48 99.4902 148.62 98.2302C149.78 96.9702 151.32 96.3402 153.24 96.3402C155.32 96.3402 156.94 97.0302 158.1 98.4102C159.28 99.7902 159.87 101.68 159.87 104.08V104.53C159.87 104.73 159.8 104.89 159.66 105.01C159.54 105.13 159.38 105.19 159.18 105.19H148.5V105.49C148.54 106.43 148.75 107.31 149.13 108.13C149.53 108.93 150.08 109.58 150.78 110.08C151.48 110.56 152.3 110.8 153.24 110.8C154.34 110.8 155.23 110.59 155.91 110.17C156.61 109.73 157.11 109.29 157.41 108.85C157.59 108.61 157.72 108.46 157.8 108.4C157.9 108.34 158.07 108.31 158.31 108.31H158.79C158.97 108.31 159.12 108.36 159.24 108.46C159.36 108.56 159.42 108.69 159.42 108.85C159.42 109.27 159.15 109.78 158.61 110.38C158.09 110.96 157.36 111.47 156.42 111.91C155.48 112.33 154.42 112.54 153.24 112.54ZM158.04 103.51V103.39C158.04 101.85 157.6 100.58 156.72 99.5802C155.86 98.5802 154.7 98.0802 153.24 98.0802C151.78 98.0802 150.62 98.5802 149.76 99.5802C148.92 100.58 148.5 101.85 148.5 103.39V103.51H158.04Z" fill="#2E5BFF"/>
<path fill-rule="evenodd" clip-rule="evenodd" d="M62.9364 29.9389C63.0768 26.7693 63.9897 20.6456 68.3127 12.9348C71.9545 6.43915 74.8368 3.83295 77.0957 1.83824C79.1872 -0.00866144 80.7251 1.32214 79.3106 2.81548C77.1623 5.08352 75.3262 6.26076 71.3518 14.3801C68.5458 20.1118 68.5432 24.427 68.7543 27.2366C70.1619 26.8635 71.6 26.7205 73.0432 26.792C74.1789 23.7169 75.6216 20.3792 78.3453 17.009C82.6998 11.6215 87.0701 8.99157 89.4531 7.51548C91.6596 6.14858 92.8621 7.60927 91.3317 8.75754C89.0072 10.5017 85.8196 11.9847 80.9062 18.809C78.5947 22.0198 77.6803 24.9989 77.0635 27.5362C78.2255 27.9077 79.375 28.4116 80.4982 29.0394C80.6559 29.1274 80.8129 29.218 80.9688 29.3104C81.5251 29.1578 82.1007 29.046 82.6922 28.9792C88.8685 28.2801 94.4504 32.7267 95.1497 38.9031C95.4534 41.5867 94.7855 44.1582 93.426 46.266C93.4331 46.2886 93.4403 46.312 93.4476 46.3352C93.6669 47.0451 93.8635 47.7575 94.0299 48.4732C94.0894 48.7155 94.146 48.9575 94.2003 49.2001C94.6026 49.5217 94.9589 49.9251 95.2589 50.4221C96.2968 52.1426 96.1288 54.1281 96.0432 55.6104C95.9996 56.3649 95.669 57.2401 95.0529 57.8392C95.0439 58.1523 95.0308 58.4635 95.0131 58.7729C94.8186 62.3936 94.0175 65.7431 92.6807 68.5063C92.0775 69.7532 91.3658 70.8828 90.5522 71.8706C90.9803 72.2904 91.4713 72.6472 92.5313 72.4178C94.4665 71.9987 94.7334 69.3141 94.8451 70.1185C94.8846 70.4024 94.9294 72.204 93.8037 73.2644C92.877 74.1378 90.9396 75.0741 88.9478 74.1166C88.84 74.0649 88.6793 73.9805 88.509 73.8778C87.0862 74.9925 85.4534 75.7585 83.6306 76.0982C83.6028 76.1033 83.575 76.1083 83.5472 76.1132C83.929 76.7182 84.6835 77.1224 86.1906 76.9936C87.6901 76.8656 89.4334 75.7152 88.8485 76.4454C88.6421 76.7031 87.62 77.6495 86.4313 78.0527C84.5322 78.6969 82.9593 78.6509 81.5531 78.1175C80.586 77.7506 79.7255 76.9773 79.2009 76.0582C76.9927 75.7037 74.5467 74.9008 72.0927 73.669C65.8113 70.5169 59.4674 64.5863 56.9816 56.5454C56.0322 53.4739 55.5108 50.4534 55.409 47.5801C55.2791 47.0451 55.1812 46.4964 55.1177 45.9357C54.7607 42.7824 55.5472 39.7612 57.1472 37.286C58.4092 34.3113 60.3449 31.7936 62.9364 29.9389ZM93.032 58.5828C91.9375 58.6155 91.0536 58.3088 89.7198 57.5235C88.7826 56.9716 90.3803 57.681 92.3842 57.0405C93.8476 56.5729 93.8676 55.6796 93.8858 54.5812C93.9092 53.1571 93.7637 52.535 93.418 51.726C92.9255 50.5741 91.0253 49.9369 88.5065 50.4159C85.932 50.9054 83.1547 52.8732 82.0697 56.7104C80.5998 61.9097 78.8419 66.3654 76.0065 69.4481C74.9865 70.5573 73.8869 71.3516 72.7157 71.7378L72.9892 71.8826C74.9421 72.8626 76.8844 73.5603 78.6759 73.9408C78.6943 73.7088 78.74 73.4792 78.8159 73.255C79.5032 71.2263 83.0584 71.9872 83.1318 73.7373C83.1373 73.8695 83.14 74.0097 83.1435 74.1546C83.1839 74.1477 83.2244 74.1405 83.2644 74.1329C86.6603 73.5003 89.2255 71.0578 90.8812 67.6357C91.1168 67.1486 91.3343 66.6421 91.5331 66.1175C90.9067 66.3895 90.1244 66.5647 89.1106 66.5649C86.5249 66.5651 84.5446 65.7578 83.2688 65.064C82.4715 64.6306 81.6308 63.8948 81.4603 63.5939C80.9773 62.7412 81.4324 63.324 83.1899 63.8787C85.3173 64.55 87.4998 64.6159 89.5782 64.3743C91.5444 64.1458 92.1032 63.5801 92.5 62.7674C92.7032 61.7925 92.8527 60.7798 92.9469 59.7387C92.9651 59.735 92.9651 59.735 92.9469 59.7387C92.9828 59.3571 93.0113 58.9716 93.032 58.5828ZM91.4357 48.1704C91.3258 47.7546 91.206 47.3396 91.078 46.9256L90.7504 45.9398L90.7223 45.8578C88.3253 38.8888 84.4414 33.5334 79.523 30.7842C76.1918 28.9224 72.6009 28.2677 69.2113 29.1838C66.8462 29.8228 65.6026 30.629 64.6904 31.7233C65.3577 31.5375 66.049 31.4019 66.7598 31.3215C74.0053 30.5012 80.5536 35.718 81.3738 42.9635C82.1941 50.209 76.9775 56.7575 69.732 57.5778C65.7961 58.0233 62.066 56.6874 59.3474 54.2123C59.4419 55.1962 59.5669 56.3295 59.8538 57.449C61.0734 62.2083 63.4812 65.1564 66.6784 67.7323C66.5789 67.6001 66.5455 67.5477 66.6246 67.6205C68.3761 69.2348 72.2731 69.7116 73.9632 68.2033C76.9646 65.5244 78.9292 60.6594 80.4274 55.7833C82.1154 50.289 85.8219 48.9674 88.094 48.4594C89.2557 48.1996 90.394 48.0752 91.4357 48.1704ZM68.6961 34.6608C74.9784 33.9497 78.9175 36.8787 79.6285 43.161C80.3398 49.4433 75.8166 55.1212 69.5343 55.8323C63.252 56.5435 57.5743 52.0205 56.863 45.7382C56.152 39.4557 62.4138 35.372 68.6961 34.6608ZM58.1768 46.4313C61.7347 48.8608 66.3564 49.6375 70.7387 48.1267C73.9545 47.018 76.5127 44.8598 78.1619 42.1679C79.2295 47.1451 76.4327 52.2571 71.4991 53.958C66.1683 55.7957 60.3485 52.9598 58.5106 47.629C58.3738 47.232 58.2628 46.832 58.1768 46.4313ZM92.669 44.0803C93.3497 42.5693 93.6458 40.8612 93.446 39.0959C92.8872 34.1603 89.2299 31.6219 84.4269 31.8433C86.8975 34.021 89.1196 36.8408 90.8922 40.1711C91.4269 39.2867 91.8506 38.3279 92.1442 37.3132C92.5315 38.2932 92.738 39.3628 92.7237 40.4805C92.7117 41.3925 92.5538 42.2688 92.2717 43.0872C92.4085 43.4143 92.5409 43.7454 92.669 44.0803Z" fill="#2E5BFF"/>
</svg>
