<svg width="374" height="91" viewBox="0 0 374 91" fill="none" xmlns="http://www.w3.org/2000/svg">
<path d="M79.1157 71.7898C74.8311 71.7898 71.4035 70.548 68.8327 68.0643C66.3009 65.5806 64.9571 62.14 64.8013 57.7427L64.7429 55.2997L64.8013 52.8567C64.9571 48.4593 66.3009 45.0188 68.8327 42.5351C71.4035 40.0514 74.8311 38.8095 79.1157 38.8095C82.1928 38.8095 84.783 39.3796 86.8864 40.5196C89.0287 41.6597 90.6062 43.0644 91.6189 44.7338C92.6705 46.3624 93.2353 47.93 93.3132 49.4365C93.3522 49.8437 93.2158 50.1898 92.9042 50.4748C92.6316 50.7598 92.3005 50.9023 91.911 50.9023H86.7111C86.2826 50.9023 85.971 50.8209 85.7763 50.658C85.5815 50.4544 85.3868 50.1083 85.192 49.6197C84.6078 48.0725 83.8287 46.9528 82.855 46.2606C81.9202 45.5685 80.7127 45.2224 79.2326 45.2224C77.2461 45.2224 75.6881 45.8738 74.5585 47.1768C73.4679 48.4797 72.8836 50.4748 72.8057 53.1621L72.7473 55.4218L72.8057 57.4373C73.0394 62.7304 75.1817 65.377 79.2326 65.377C80.7516 65.377 81.9786 65.0513 82.9134 64.3998C83.8482 63.7076 84.6078 62.5676 85.192 60.9796C85.3478 60.5317 85.5231 60.206 85.7178 60.0024C85.9516 59.7988 86.2826 59.6971 86.7111 59.6971H91.911C92.3005 59.6971 92.6316 59.8396 92.9042 60.1246C93.2158 60.4096 93.3522 60.7557 93.3132 61.1629C93.2353 62.5879 92.69 64.1351 91.6773 65.8045C90.6646 67.4332 89.1066 68.8379 87.0032 70.0187C84.8999 71.1995 82.2707 71.7898 79.1157 71.7898Z" fill="#2E5BFF"/>
<path d="M100.807 71.1791C100.418 71.1791 100.087 71.0366 99.814 70.7516C99.5414 70.4666 99.405 70.1205 99.405 69.7133V40.9471C99.405 40.4993 99.5414 40.1328 99.814 39.8478C100.087 39.5628 100.418 39.4203 100.807 39.4203H105.598C106.027 39.4203 106.377 39.5628 106.65 39.8478C106.923 40.1328 107.059 40.4993 107.059 40.9471V43.4512C109.006 40.7639 111.811 39.4203 115.472 39.4203H117.926C118.355 39.4203 118.686 39.5628 118.919 39.8478C119.192 40.0921 119.328 40.4382 119.328 40.8861V45.3445C119.328 45.7517 119.192 46.0978 118.919 46.3828C118.686 46.6678 118.355 46.8103 117.926 46.8103H113.31C111.48 46.8103 110.039 47.36 108.987 48.4593C107.935 49.5587 107.409 51.0652 107.409 52.9789V69.7133C107.409 70.1205 107.273 70.4666 107 70.7516C106.728 71.0366 106.397 71.1791 106.007 71.1791H100.807Z" fill="#2E5BFF"/>
<path d="M125.051 34.2289C124.661 34.2289 124.33 34.0864 124.058 33.8014C123.785 33.5164 123.649 33.1703 123.649 32.7631V28.3047C123.649 27.8568 123.785 27.4904 124.058 27.2054C124.33 26.9203 124.661 26.7778 125.051 26.7778H130.426C130.855 26.7778 131.205 26.9203 131.478 27.2054C131.75 27.4904 131.887 27.8568 131.887 28.3047V32.7631C131.887 33.1703 131.731 33.5164 131.419 33.8014C131.147 34.0864 130.816 34.2289 130.426 34.2289H125.051ZM125.285 71.1791C124.895 71.1791 124.564 71.0366 124.291 70.7516C124.019 70.4666 123.882 70.1205 123.882 69.7133V40.8861C123.882 40.4382 124.019 40.0921 124.291 39.8478C124.564 39.5628 124.895 39.4203 125.285 39.4203H130.251C130.64 39.4203 130.971 39.5628 131.244 39.8478C131.517 40.1328 131.653 40.4789 131.653 40.8861V69.7133C131.653 70.1205 131.517 70.4666 131.244 70.7516C130.971 71.0366 130.64 71.1791 130.251 71.1791H125.285Z" fill="#2E5BFF"/>
<path d="M152.491 71.7898C148.206 71.7898 144.778 70.548 142.208 68.0643C139.676 65.5806 138.332 62.14 138.176 57.7427L138.118 55.2997L138.176 52.8567C138.332 48.4593 139.676 45.0188 142.208 42.5351C144.778 40.0514 148.206 38.8095 152.491 38.8095C155.568 38.8095 158.158 39.3796 160.261 40.5196C162.403 41.6597 163.981 43.0644 164.994 44.7338C166.045 46.3624 166.61 47.93 166.688 49.4365C166.727 49.8437 166.591 50.1898 166.279 50.4748C166.006 50.7598 165.675 50.9023 165.286 50.9023H160.086C159.657 50.9023 159.346 50.8209 159.151 50.658C158.956 50.4544 158.762 50.1083 158.567 49.6197C157.983 48.0725 157.204 46.9528 156.23 46.2606C155.295 45.5685 154.087 45.2224 152.607 45.2224C150.621 45.2224 149.063 45.8738 147.933 47.1768C146.843 48.4797 146.258 50.4748 146.181 53.1621L146.122 55.4218L146.181 57.4373C146.414 62.7304 148.556 65.377 152.607 65.377C154.126 65.377 155.353 65.0513 156.288 64.3998C157.223 63.7076 157.983 62.5676 158.567 60.9796C158.723 60.5317 158.898 60.206 159.093 60.0024C159.326 59.7988 159.657 59.6971 160.086 59.6971H165.286C165.675 59.6971 166.006 59.8396 166.279 60.1246C166.591 60.4096 166.727 60.7557 166.688 61.1629C166.61 62.5879 166.065 64.1351 165.052 65.8045C164.039 67.4332 162.481 68.8379 160.378 70.0187C158.275 71.1995 155.646 71.7898 152.491 71.7898Z" fill="#2E5BFF"/>
<path d="M174.24 71.1791C173.851 71.1791 173.52 71.0366 173.247 70.7516C172.975 70.4666 172.838 70.1205 172.838 69.7133V29.2819C172.838 28.834 172.975 28.4879 173.247 28.2436C173.52 27.9586 173.851 27.8161 174.24 27.8161H179.09C179.479 27.8161 179.81 27.9586 180.083 28.2436C180.356 28.5286 180.492 28.8747 180.492 29.2819V50.1694L190.191 40.4586C190.308 40.3771 190.483 40.2346 190.717 40.031C190.989 39.7867 191.242 39.6239 191.476 39.5424C191.71 39.461 192.002 39.4203 192.353 39.4203H197.903C198.293 39.4203 198.604 39.5424 198.838 39.7867C199.072 40.031 199.188 40.3568 199.188 40.7639C199.188 41.1304 198.994 41.4968 198.604 41.8633L186.685 53.6507L200.065 68.7972C200.415 69.1636 200.591 69.5097 200.591 69.8355C200.591 70.2426 200.474 70.5683 200.24 70.8126C200.006 71.0569 199.714 71.1791 199.364 71.1791H193.696C193.151 71.1791 192.742 71.118 192.469 70.9959C192.236 70.833 191.924 70.548 191.535 70.1408L180.492 57.8648V69.7133C180.492 70.1205 180.356 70.4666 180.083 70.7516C179.81 71.0366 179.479 71.1791 179.09 71.1791H174.24Z" fill="#2E5BFF"/>
<path d="M216.736 71.7898C212.374 71.7898 208.907 70.4869 206.336 67.8811C203.805 65.2752 202.461 61.57 202.305 56.7655L202.247 55.2386C202.247 50.1491 203.513 46.1385 206.044 43.2069C208.615 40.2753 212.16 38.8095 216.678 38.8095C221.313 38.8095 224.877 40.2753 227.37 43.2069C229.902 46.1385 231.167 50.0473 231.167 54.9332V56.2158C231.167 56.623 231.031 56.9691 230.758 57.2541C230.486 57.5391 230.135 57.6816 229.707 57.6816H210.309V58.1702C210.387 60.4503 210.972 62.3436 212.062 63.8501C213.192 65.3159 214.73 66.0488 216.678 66.0488C218.898 66.0488 220.709 65.1123 222.111 63.2394C222.462 62.7915 222.735 62.5269 222.929 62.4454C223.124 62.3233 223.455 62.2622 223.923 62.2622H229.064C229.415 62.2622 229.707 62.364 229.941 62.5676C230.213 62.7712 230.35 63.0562 230.35 63.4226C230.35 64.3998 229.785 65.5602 228.655 66.9039C227.565 68.2068 225.987 69.3469 223.923 70.324C221.858 71.3012 219.463 71.7898 216.736 71.7898ZM223.105 52.4903V52.3681C223.105 49.9658 222.52 48.0522 221.352 46.6271C220.222 45.1613 218.664 44.4284 216.678 44.4284C214.691 44.4284 213.133 45.1613 212.004 46.6271C210.874 48.0522 210.309 49.9658 210.309 52.3681V52.4903H223.105Z" fill="#2E5BFF"/>
<path d="M251.042 71.1791C247.498 71.1791 244.83 70.2223 243.038 68.3086C241.246 66.3542 240.35 63.504 240.35 59.7581V45.9553H235.735C235.345 45.9553 235.014 45.8128 234.742 45.5277C234.469 45.2427 234.333 44.8966 234.333 44.4895V40.8861C234.333 40.4789 234.469 40.1328 234.742 39.8478C235.014 39.5628 235.345 39.4203 235.735 39.4203H240.35V29.2819C240.35 28.834 240.487 28.4879 240.759 28.2436C241.032 27.9586 241.363 27.8161 241.753 27.8161H246.602C247.03 27.8161 247.362 27.9586 247.595 28.2436C247.868 28.4879 248.004 28.834 248.004 29.2819V39.4203H255.307C255.697 39.4203 256.028 39.5628 256.301 39.8478C256.573 40.1328 256.71 40.4789 256.71 40.8861V44.4895C256.71 44.8966 256.573 45.2427 256.301 45.5277C256.028 45.8128 255.697 45.9553 255.307 45.9553H248.004V59.0863C248.004 60.8371 248.296 62.1604 248.881 63.0562C249.465 63.9519 250.419 64.3998 251.743 64.3998H255.833C256.262 64.3998 256.593 64.5423 256.827 64.8273C257.099 65.0716 257.236 65.4177 257.236 65.8656V69.7133C257.236 70.1205 257.099 70.4666 256.827 70.7516C256.593 71.0366 256.262 71.1791 255.833 71.1791H251.042Z" fill="#2E5BFF"/>
<path d="M274.627 84.6155C271.589 84.6155 269.154 84.0658 267.324 82.9665C265.493 81.8672 264.208 80.6049 263.467 79.1799C262.766 77.7955 262.416 76.574 262.416 75.5154C262.416 75.1489 262.533 74.8436 262.766 74.5993C263.039 74.355 263.351 74.2328 263.701 74.2328H264.519C264.87 74.2328 265.142 74.3143 265.337 74.4771C265.571 74.6807 265.766 75.0268 265.921 75.5154C267.129 79.2206 269.933 81.0732 274.335 81.0732C277.684 81.0732 280.158 80.3403 281.755 78.8745C283.352 77.4494 284.15 74.8843 284.15 71.1791V66.9649C281.891 70.1815 278.619 71.7898 274.335 71.7898C270.128 71.7898 267.012 70.3648 264.987 67.5146C263 64.6237 261.948 61.1221 261.832 57.0098L261.773 55.2997L261.832 53.5896C261.948 49.4772 263 45.996 264.987 43.1458C267.012 40.255 270.128 38.8095 274.335 38.8095C278.58 38.8095 281.852 40.4178 284.15 43.6344V40.825C284.15 40.4178 284.267 40.0921 284.501 39.8478C284.735 39.5628 285.046 39.4203 285.436 39.4203H286.37C286.76 39.4203 287.072 39.5628 287.305 39.8478C287.578 40.0921 287.714 40.4178 287.714 40.825V70.5683C287.714 74.925 286.74 78.3452 284.793 80.8289C282.845 83.3533 279.457 84.6155 274.627 84.6155ZM274.685 68.2475C277.762 68.2475 280.08 67.1889 281.638 65.0716C283.196 62.9137 284.033 60.3892 284.15 57.4984C284.189 57.0912 284.209 56.3583 284.209 55.2997C284.209 54.2411 284.189 53.5082 284.15 53.101C284.033 50.2101 283.196 47.7061 281.638 45.5888C280.08 43.4308 277.762 42.3519 274.685 42.3519C271.53 42.3519 269.213 43.4105 267.733 45.5277C266.291 47.6043 265.512 50.2916 265.396 53.5896L265.337 55.2997L265.396 57.0098C265.512 60.3078 266.291 63.0155 267.733 65.1327C269.213 67.2092 271.53 68.2475 274.685 68.2475Z" fill="#2E5BFF"/>
<path d="M305.421 71.7898C303.551 71.7898 301.818 71.3827 300.221 70.5683C298.624 69.754 297.338 68.6547 296.365 67.2703C295.43 65.886 294.962 64.3591 294.962 62.6897C294.962 60.0024 295.994 57.8037 298.059 56.0937C300.162 54.3836 302.986 53.2842 306.531 52.7956L315.762 51.452V49.3144C315.762 47.075 315.1 45.3649 313.775 44.1841C312.49 42.9626 310.504 42.3519 307.816 42.3519C305.829 42.3519 304.194 42.759 302.908 43.5734C301.662 44.3877 300.863 45.3649 300.513 46.5049C300.357 46.9935 300.162 47.3396 299.928 47.5432C299.734 47.7061 299.461 47.7875 299.111 47.7875H298.293C297.942 47.7875 297.63 47.6654 297.358 47.4211C297.124 47.136 297.007 46.8103 297.007 46.4439C297.007 45.5481 297.397 44.5098 298.176 43.3291C298.955 42.1076 300.162 41.0489 301.798 40.1532C303.434 39.2574 305.44 38.8095 307.816 38.8095C311.984 38.8095 314.944 39.8478 316.697 41.9243C318.45 44.0009 319.326 46.5253 319.326 49.4976V69.8355C319.326 70.2426 319.209 70.5683 318.975 70.8126C318.742 71.0569 318.43 71.1791 318.041 71.1791H317.047C316.658 71.1791 316.346 71.0569 316.112 70.8126C315.879 70.5683 315.762 70.2426 315.762 69.8355V66.9649C314.905 68.3086 313.639 69.4486 311.964 70.3851C310.328 71.3216 308.147 71.7898 305.421 71.7898ZM306.005 68.2475C308.848 68.2475 311.185 67.2703 313.016 65.3159C314.847 63.3615 315.762 60.5521 315.762 56.8876V54.8111L308.225 55.9104C305.031 56.3583 302.616 57.1319 300.98 58.2313C299.344 59.3306 298.526 60.715 298.526 62.3843C298.526 64.2573 299.266 65.7027 300.746 66.7206C302.266 67.7386 304.018 68.2475 306.005 68.2475Z" fill="#2E5BFF"/>
<path d="M338.504 71.1791C335.622 71.1791 333.577 70.2833 332.369 68.4918C331.162 66.6596 330.558 64.1555 330.558 60.9796V42.9626H326.001C325.612 42.9626 325.3 42.8405 325.066 42.5962C324.833 42.3519 324.716 42.0261 324.716 41.619V40.7639C324.716 40.3568 324.833 40.031 325.066 39.7867C325.3 39.5424 325.612 39.4203 326.001 39.4203H330.558V29.1597C330.558 28.7526 330.675 28.4268 330.909 28.1825C331.143 27.9383 331.454 27.8161 331.844 27.8161H332.837C333.226 27.8161 333.538 27.9383 333.772 28.1825C334.005 28.4268 334.122 28.7526 334.122 29.1597V39.4203H341.367C341.757 39.4203 342.068 39.5424 342.302 39.7867C342.536 40.031 342.652 40.3568 342.652 40.7639V41.619C342.652 42.0261 342.536 42.3519 342.302 42.5962C342.068 42.8405 341.757 42.9626 341.367 42.9626H334.122V60.7353C334.122 63.0154 334.473 64.7459 335.174 65.9267C335.914 67.0667 337.121 67.6368 338.796 67.6368H341.951C342.341 67.6368 342.652 67.7589 342.886 68.0032C343.12 68.2475 343.237 68.5732 343.237 68.9804V69.8355C343.237 70.2426 343.12 70.5683 342.886 70.8126C342.652 71.0569 342.341 71.1791 341.951 71.1791H338.504Z" fill="#2E5BFF"/>
<path d="M360.553 71.7898C356.852 71.7898 353.873 70.5276 351.614 68.0032C349.354 65.4381 348.069 62.0179 347.757 57.7427L347.699 55.2997L347.757 52.8567C348.069 48.6222 349.335 45.2224 351.555 42.6572C353.814 40.0921 356.813 38.8095 360.553 38.8095C364.604 38.8095 367.759 40.2143 370.018 43.0237C372.316 45.8331 373.465 49.6808 373.465 54.5668V55.4829C373.465 55.8901 373.329 56.2158 373.056 56.4601C372.822 56.7044 372.511 56.8266 372.121 56.8266H351.321V57.4373C351.399 59.351 351.808 61.1425 352.548 62.8119C353.327 64.4405 354.399 65.7638 355.762 66.7817C357.125 67.7589 358.722 68.2475 360.553 68.2475C362.695 68.2475 364.428 67.82 365.753 66.9649C367.116 66.0692 368.09 65.1734 368.674 64.2777C369.024 63.7891 369.278 63.4837 369.433 63.3615C369.628 63.2394 369.959 63.1783 370.427 63.1783H371.362C371.712 63.1783 372.004 63.2801 372.238 63.4837C372.472 63.6873 372.588 63.9519 372.588 64.2777C372.588 65.1327 372.063 66.171 371.011 67.3925C369.998 68.5732 368.577 69.6115 366.746 70.5073C364.915 71.3623 362.851 71.7898 360.553 71.7898ZM369.901 53.4064V53.1621C369.901 50.0269 369.044 47.4414 367.33 45.4056C365.655 43.3698 363.396 42.3519 360.553 42.3519C357.709 42.3519 355.45 43.3698 353.775 45.4056C352.139 47.4414 351.321 50.0269 351.321 53.1621V53.4064H369.901Z" fill="#2E5BFF"/>
<path fill-rule="evenodd" clip-rule="evenodd" d="M9.84849 33.804C10.0118 30.1193 11.073 23.0005 16.0985 14.0367C20.3321 6.48552 23.6828 3.4558 26.3087 1.13695C28.74 -1.01007 30.5279 0.536991 28.8836 2.27299C26.3862 4.90959 24.2517 6.27814 19.6314 15.7168C16.3694 22.38 16.3665 27.3963 16.6118 30.6626C18.2481 30.2288 19.92 30.0626 21.5978 30.1457C22.9179 26.5708 24.5951 22.6908 27.7614 18.773C32.8235 12.5099 37.904 9.4527 40.6742 7.73674C43.2392 6.14772 44.6372 7.84577 42.8581 9.18064C40.1558 11.2082 36.4502 12.9322 30.7385 20.8655C28.0514 24.5981 26.9883 28.0612 26.2713 31.0108C27.6222 31.4427 28.9584 32.0284 30.2641 32.7583C30.4474 32.8606 30.63 32.9659 30.8112 33.0734C31.4579 32.8959 32.1271 32.766 32.8147 32.6883C39.9946 31.8756 46.4835 37.0448 47.2965 44.2248C47.6495 47.3446 46.8732 50.3339 45.2927 52.7843C45.301 52.8105 45.3093 52.8377 45.3178 52.8647C45.5728 53.69 45.8013 54.5181 45.9947 55.3501C46.064 55.6317 46.1297 55.9131 46.1928 56.1951C46.6604 56.5689 47.0747 57.038 47.4234 57.6157C48.63 59.6158 48.4347 61.9239 48.3352 63.6471C48.2845 64.5242 47.9002 65.5416 47.184 66.238C47.1735 66.602 47.1583 66.9638 47.1377 67.3235C46.9117 71.5326 45.9803 75.4263 44.4263 78.6385C43.7251 80.0881 42.8977 81.4013 41.9519 82.5496C42.4495 83.0376 43.0204 83.4524 44.2526 83.1857C46.5022 82.6985 46.8125 79.5776 46.9424 80.5127C46.9884 80.8427 47.0405 82.9371 45.7318 84.1699C44.6545 85.1851 42.4022 86.2736 40.0868 85.1606C39.9615 85.1004 39.7747 85.0024 39.5767 84.8829C37.9227 86.1787 36.0245 87.0692 33.9055 87.4642C33.8732 87.4701 33.8409 87.4759 33.8085 87.4816C34.2524 88.1849 35.1295 88.6547 36.8815 88.5051C38.6248 88.3562 40.6513 87.019 39.9714 87.8677C39.7314 88.1673 38.5433 89.2675 37.1614 89.7363C34.9537 90.4851 33.1252 90.4316 31.4905 89.8116C30.3662 89.3851 29.3659 88.4861 28.7561 87.4177C26.189 87.0056 23.3455 86.0721 20.4927 84.6402C13.1906 80.9758 5.81581 74.0815 2.92613 64.734C1.82243 61.1634 1.21632 57.6521 1.09794 54.3118C0.946944 53.69 0.833099 53.0521 0.759341 52.4003C0.344315 48.7345 1.25855 45.2224 3.11855 42.345C4.5857 38.8869 6.83587 35.9601 9.84849 33.804ZM44.8347 67.1025C43.5623 67.1405 42.5348 66.784 40.9842 65.8711C39.8947 65.2294 41.752 66.0541 44.0816 65.3096C45.7828 64.766 45.8061 63.7275 45.8272 62.4507C45.8544 60.7951 45.6853 60.0719 45.2833 59.1315C44.7109 57.7924 42.5019 57.0516 39.5737 57.6085C36.5809 58.1775 33.3524 60.4651 32.091 64.9258C30.3822 70.97 28.3386 76.1497 25.0425 79.7334C23.8567 81.0229 22.5785 81.9462 21.2169 82.3951L21.5349 82.5635C23.8052 83.7028 26.0631 84.5138 28.1457 84.9561C28.1671 84.6865 28.2203 84.4195 28.3084 84.1589C29.1075 81.8005 33.2404 82.6851 33.3256 84.7196C33.3321 84.8733 33.3353 85.0363 33.3393 85.2047C33.3863 85.1966 33.4333 85.1884 33.4798 85.1795C37.4275 84.4441 40.4097 81.6047 42.3343 77.6265C42.6083 77.0602 42.8611 76.4715 43.0922 75.8616C42.364 76.1778 41.4546 76.3814 40.276 76.3817C37.2701 76.3819 34.9681 75.4434 33.4849 74.6369C32.5581 74.1331 31.5808 73.2777 31.3825 72.9279C30.8211 71.9367 31.3502 72.6141 33.3933 73.259C35.8663 74.0393 38.4035 74.116 40.8196 73.8351C43.1053 73.5695 43.755 72.9118 44.2163 71.9671C44.4525 70.8338 44.6262 69.6566 44.7358 68.4462C44.7569 68.4419 44.7569 68.4419 44.7358 68.4462C44.7775 68.0026 44.8106 67.5544 44.8347 67.1025ZM42.9789 54.9981C42.8512 54.5147 42.712 54.0323 42.5631 53.551L42.1823 52.4051L42.1497 52.3097C39.3632 44.2082 34.8481 37.9826 29.1305 34.7866C25.2579 32.6223 21.0836 31.8612 17.1431 32.9261C14.3937 33.669 12.948 34.6063 11.8875 35.8783C12.6633 35.6624 13.4669 35.5047 14.2932 35.4112C22.7162 34.4577 30.3285 40.5222 31.282 48.9451C32.2356 57.368 26.1713 64.9806 17.7484 65.9342C13.173 66.4521 8.83671 64.8991 5.67631 62.0217C5.78615 63.1655 5.93153 64.483 6.26505 65.7845C7.68276 71.3172 10.4818 74.7443 14.1986 77.7387C14.0829 77.5851 14.0442 77.5241 14.1361 77.6089C16.1722 79.4854 20.7025 80.0397 22.6673 78.2863C26.1564 75.1722 28.4402 69.5165 30.1818 63.8481C32.1442 57.461 36.4529 55.9246 39.0943 55.334C40.4447 55.032 41.7681 54.8875 42.9789 54.9981ZM16.5442 39.2931C23.8474 38.4666 28.4266 41.8715 29.2531 49.1746C30.08 56.4778 24.8217 63.0784 17.5186 63.905C10.2154 64.7318 3.61508 59.4739 2.78824 52.1707C1.96166 44.8672 9.24105 40.12 16.5442 39.2931ZM4.31552 52.9764C8.45162 55.8006 13.8242 56.7036 18.9187 54.9473C22.6571 53.6584 25.631 51.1496 27.5481 48.0202C28.7892 53.8062 25.538 59.7488 19.8027 61.7262C13.6056 63.8625 6.84015 60.5658 4.70356 54.3687C4.54455 53.9072 4.41547 53.4422 4.31552 52.9764ZM44.4127 50.2433C45.204 48.4868 45.5482 46.5012 45.316 44.449C44.6663 38.7113 40.4147 35.7605 34.8313 36.0178C37.7033 38.5494 40.2865 41.8274 42.3472 45.6989C42.9688 44.6708 43.4613 43.5562 43.8026 42.3766C44.2529 43.5158 44.4929 44.7593 44.4763 46.0586C44.4624 47.1188 44.2788 48.1375 43.9509 49.0889C44.1099 49.4691 44.2638 49.854 44.4127 50.2433Z" fill="#2E5BFF"/>
</svg>
