<svg width="258" height="86" viewBox="0 0 258 86" fill="none" xmlns="http://www.w3.org/2000/svg">
<path d="M14.4086 40.3435C14.3949 40.5975 14.5899 40.8147 14.8437 40.8287C15.0979 40.8424 15.3151 40.6478 15.3289 40.3936L14.4086 40.3435ZM34.2328 5.53793C34.4286 5.37544 34.4556 5.0847 34.2932 4.88884C34.131 4.69305 33.8402 4.66604 33.6444 4.82853L34.2328 5.53793ZM15.3289 40.3936C15.8743 30.3753 20.5862 21.6655 25.1884 15.4417C27.487 12.3331 29.7519 9.85374 31.4413 8.15255C32.2858 7.30206 32.9859 6.64631 33.4738 6.20432C33.7178 5.98318 33.9087 5.81554 34.0379 5.70386C34.1028 5.6478 34.1519 5.60593 34.1848 5.57817C34.2012 5.56415 34.2136 5.55377 34.2214 5.54697C34.2254 5.54391 34.2284 5.54121 34.2303 5.53983C34.2312 5.53909 34.232 5.53836 34.2324 5.53815C34.2325 5.53785 34.2325 5.53785 34.2328 5.53763C34.2328 5.53763 34.2328 5.53793 33.9386 5.18308C33.6444 4.82852 33.6444 4.82853 33.644 4.82874C33.6439 4.82904 33.6435 4.82926 33.6432 4.82948C33.6424 4.82991 33.6415 4.83093 33.6403 4.83188C33.6379 4.83378 33.6342 4.83692 33.6296 4.84079C33.6206 4.84854 33.607 4.85987 33.5893 4.87484C33.5541 4.9045 33.5024 4.94886 33.435 5.00681C33.3008 5.12317 33.1046 5.29542 32.8551 5.52146C32.3563 5.97324 31.6443 6.64013 30.7872 7.50314C29.0737 9.22904 26.7782 11.7419 24.4474 14.8937C19.7912 21.1907 14.9678 30.0733 14.4086 40.3435L15.3289 40.3936Z" fill="#2E5BFF" stroke="#2E5BFF" stroke-width="2" stroke-linejoin="round"/>
<path d="M28.9471 44.239C28.9334 44.493 29.1284 44.7102 29.3822 44.7242C29.6364 44.7379 29.8536 44.5433 29.8674 44.2891L28.9471 44.239ZM48.7713 9.43344C48.9671 9.27095 48.9942 8.98021 48.8317 8.78435C48.6695 8.58856 48.3787 8.56154 48.1829 8.72403L48.7713 9.43344ZM29.8674 44.2891C30.4128 34.2708 35.1247 25.561 39.7269 19.3372C42.0255 16.2286 44.2904 13.7492 45.9798 12.0481C46.8243 11.1976 47.5244 10.5418 48.0123 10.0998C48.2564 9.87869 48.4472 9.71105 48.5764 9.59937C48.6413 9.54331 48.6904 9.50144 48.7233 9.47368C48.7398 9.45965 48.7521 9.44928 48.7599 9.44248C48.7639 9.43942 48.7669 9.43672 48.7689 9.43533C48.7697 9.4346 48.7705 9.43387 48.7709 9.43365C48.771 9.43336 48.771 9.43335 48.7714 9.43314C48.7714 9.43314 48.7713 9.43343 48.4771 9.07858C48.1829 8.72403 48.1829 8.72403 48.1825 8.72425C48.1824 8.72455 48.182 8.72477 48.1817 8.72498C48.1809 8.72542 48.18 8.72644 48.1788 8.72739C48.1764 8.72929 48.1727 8.73243 48.1681 8.7363C48.1591 8.74405 48.1455 8.75537 48.1279 8.77035C48.0926 8.80001 48.0409 8.84437 47.9736 8.90232C47.8393 9.01868 47.6431 9.19092 47.3936 9.41696C46.8948 9.86875 46.1828 10.5356 45.3257 11.3987C43.6122 13.1245 41.3168 15.6374 38.9859 18.7892C34.3297 25.0862 29.5064 33.9688 28.9471 44.239L29.8674 44.2891Z" fill="#2E5BFF" stroke="#2E5BFF" stroke-width="2" stroke-linejoin="round"/>
<path d="M39.9864 36.0381C45.6399 36.1439 50.1353 40.7641 50.0306 46.3543C49.9259 51.9444 45.2606 56.3931 39.6071 56.2873C33.9536 56.1815 29.458 51.5612 29.5627 45.9711C29.6674 40.3809 34.3326 35.9323 39.9864 36.0381Z" fill="white" stroke="#2E5BFF" stroke-width="2"/>
<path d="M48.1909 43.0257C48.9725 45.7543 48.8118 48.3192 47.7931 50.3897C46.7754 52.4585 44.8938 54.0487 42.2026 54.8197C39.5026 55.5931 37.2089 55.3919 35.3994 54.3349C33.5886 53.2776 32.2378 51.3486 31.455 48.6161C31.2574 47.9258 31.1337 47.4465 31.0825 47.1281C31.0568 46.968 31.0514 46.8597 31.0597 46.7907C31.0635 46.7577 31.0692 46.7411 31.0731 46.7335C31.0823 46.7328 31.1054 46.733 31.1523 46.7468C31.2224 46.7675 31.316 46.81 31.4385 46.8763C31.583 46.9541 31.7511 47.0551 31.9486 47.1739C32.0888 47.2582 32.2439 47.3512 32.4158 47.4514C34.0561 48.4067 36.9935 49.8463 41.3494 48.9747C45.17 48.2103 46.5569 45.302 47.1857 43.3211C47.3168 42.9075 47.4159 42.5318 47.4967 42.2256C47.5126 42.165 47.5277 42.1073 47.5424 42.0527C47.587 41.885 47.6254 41.7477 47.6611 41.6419C47.6746 41.6019 47.6872 41.5694 47.698 41.5433C47.7123 41.5704 47.7293 41.6055 47.7488 41.6501C47.8543 41.895 47.9926 42.3343 48.1909 43.0257Z" fill="#2E5BFF"/>
<path d="M45.0896 51.8593C46.8731 58.6449 46.5187 65.2989 44.5116 70.5702C42.5042 75.8413 38.85 79.7172 34.0374 80.9822C29.2247 82.2472 24.1369 80.6686 19.7973 77.0658C15.4577 73.4629 11.8771 67.8428 10.0936 61.0572C8.31002 54.2717 8.66456 47.6173 10.6719 42.3464C12.6793 37.0753 16.3335 33.1991 21.1461 31.9344C25.9587 30.6694 31.0463 32.2476 35.3861 35.8508C39.7257 39.4537 43.3061 45.0734 45.0896 51.8593Z" fill="white" stroke="#2E5BFF" stroke-width="2"/>
<path d="M39.9463 71.0302C40.0037 71.4841 39.9585 71.9102 39.843 72.2309C39.7259 72.5554 39.5454 72.7516 39.3438 72.7908C39.1422 72.8299 38.922 72.7118 38.7305 72.4474C38.541 72.1861 38.3929 71.7979 38.3355 71.3439C38.2781 70.8897 38.3232 70.4639 38.439 70.1432C38.5559 69.8187 38.7366 69.6226 38.9379 69.5833C39.1395 69.5442 39.3597 69.6623 39.5513 69.9264C39.7408 70.1877 39.8889 70.5762 39.9463 71.0302Z" fill="#2E5BFF" stroke="#2E5BFF" stroke-width="0.5"/>
<path d="M42.5442 71.4529C42.3939 71.8943 42.1601 72.2718 41.91 72.5181C41.6559 72.7683 41.4046 72.8661 41.2097 72.8028C41.0128 72.7389 40.8689 72.5227 40.8156 72.1872C40.763 71.8558 40.8036 71.429 40.9542 70.9877C41.1049 70.5461 41.3345 70.1806 41.5801 69.9461C41.8289 69.7087 42.077 69.6193 42.274 69.6832C42.4728 69.7477 42.6192 69.9552 42.6757 70.2773C42.7316 70.5966 42.6949 71.0113 42.5442 71.4529Z" fill="#2E5BFF" stroke="#2E5BFF" stroke-width="0.5"/>
<path d="M37.4429 53.7982C35.3788 61.5015 27.5278 66.0878 19.9096 64.0465C12.2911 62.0051 7.78532 54.1079 9.84942 46.4046C11.9134 38.7015 19.7643 34.1149 27.3827 36.1563C35.0009 38.1976 39.5069 46.0952 37.4429 53.7982Z" fill="white" stroke="#2E5BFF" stroke-width="2"/>
<path d="M23.5907 54.8645L23.5953 54.8648L23.6 54.8651C30.6857 54.8919 34.1676 51.83 35.7595 49.7529C36.1121 49.2929 36.371 48.8823 36.5554 48.5667C36.4874 49.0021 36.3923 49.6457 36.2895 50.5424C35.8356 54.5071 34.2507 57.7596 31.816 59.9095C29.3828 62.0583 26.0886 63.1179 22.1914 62.677C18.285 62.2353 15.4186 60.7432 13.6389 58.3908C11.8583 56.0372 10.7578 52.4084 11.2119 48.44C11.3016 47.6563 11.352 47.073 11.3834 46.6599C11.4974 47.0409 12.0597 47.9256 12.3236 48.4807C12.8932 49.6776 13.891 51.1571 15.6603 52.3964C17.4296 53.6354 19.9621 54.6286 23.5907 54.8645Z" fill="#2E5BFF"/>
<path d="M74.476 71.36C71.836 71.36 69.724 70.628 68.14 69.164C66.58 67.7 65.752 65.672 65.656 63.08L65.62 61.64L65.656 60.2C65.752 57.608 66.58 55.58 68.14 54.116C69.724 52.652 71.836 51.92 74.476 51.92C76.372 51.92 77.968 52.256 79.264 52.928C80.584 53.6 81.556 54.428 82.18 55.412C82.828 56.372 83.176 57.296 83.224 58.184C83.248 58.424 83.164 58.628 82.972 58.796C82.804 58.964 82.6 59.048 82.36 59.048H79.156C78.892 59.048 78.7 59 78.58 58.904C78.46 58.784 78.34 58.58 78.22 58.292C77.86 57.38 77.38 56.72 76.78 56.312C76.204 55.904 75.46 55.7 74.548 55.7C73.324 55.7 72.364 56.084 71.668 56.852C70.996 57.62 70.636 58.796 70.588 60.38L70.552 61.712L70.588 62.9C70.732 66.02 72.052 67.58 74.548 67.58C75.484 67.58 76.24 67.388 76.816 67.004C77.392 66.596 77.86 65.924 78.22 64.988C78.316 64.724 78.424 64.532 78.544 64.412C78.688 64.292 78.892 64.232 79.156 64.232H82.36C82.6 64.232 82.804 64.316 82.972 64.484C83.164 64.652 83.248 64.856 83.224 65.096C83.176 65.936 82.84 66.848 82.216 67.832C81.592 68.792 80.632 69.62 79.336 70.316C78.04 71.012 76.42 71.36 74.476 71.36ZM87.8416 71C87.6016 71 87.3976 70.916 87.2296 70.748C87.0616 70.58 86.9776 70.376 86.9776 70.136V53.18C86.9776 52.916 87.0616 52.7 87.2296 52.532C87.3976 52.364 87.6016 52.28 87.8416 52.28H90.7936C91.0576 52.28 91.2736 52.364 91.4416 52.532C91.6096 52.7 91.6936 52.916 91.6936 53.18V54.656C92.8936 53.072 94.6216 52.28 96.8776 52.28H98.3896C98.6536 52.28 98.8576 52.364 99.0016 52.532C99.1696 52.676 99.2536 52.88 99.2536 53.144V55.772C99.2536 56.012 99.1696 56.216 99.0016 56.384C98.8576 56.552 98.6536 56.636 98.3896 56.636H95.5456C94.4176 56.636 93.5296 56.96 92.8816 57.608C92.2336 58.256 91.9096 59.144 91.9096 60.272V70.136C91.9096 70.376 91.8256 70.58 91.6576 70.748C91.4896 70.916 91.2856 71 91.0456 71H87.8416ZM102.78 49.22C102.54 49.22 102.336 49.136 102.168 48.968C102 48.8 101.916 48.596 101.916 48.356V45.728C101.916 45.464 102 45.248 102.168 45.08C102.336 44.912 102.54 44.828 102.78 44.828H106.092C106.356 44.828 106.572 44.912 106.74 45.08C106.908 45.248 106.992 45.464 106.992 45.728V48.356C106.992 48.596 106.896 48.8 106.704 48.968C106.536 49.136 106.332 49.22 106.092 49.22H102.78ZM102.924 71C102.684 71 102.48 70.916 102.312 70.748C102.144 70.58 102.06 70.376 102.06 70.136V53.144C102.06 52.88 102.144 52.676 102.312 52.532C102.48 52.364 102.684 52.28 102.924 52.28H105.984C106.224 52.28 106.428 52.364 106.596 52.532C106.764 52.7 106.848 52.904 106.848 53.144V70.136C106.848 70.376 106.764 70.58 106.596 70.748C106.428 70.916 106.224 71 105.984 71H102.924ZM119.687 71.36C117.047 71.36 114.935 70.628 113.351 69.164C111.791 67.7 110.963 65.672 110.867 63.08L110.831 61.64L110.867 60.2C110.963 57.608 111.791 55.58 113.351 54.116C114.935 52.652 117.047 51.92 119.687 51.92C121.583 51.92 123.179 52.256 124.475 52.928C125.795 53.6 126.767 54.428 127.391 55.412C128.039 56.372 128.387 57.296 128.435 58.184C128.459 58.424 128.375 58.628 128.183 58.796C128.015 58.964 127.811 59.048 127.571 59.048H124.367C124.103 59.048 123.911 59 123.791 58.904C123.671 58.784 123.551 58.58 123.431 58.292C123.071 57.38 122.591 56.72 121.991 56.312C121.415 55.904 120.671 55.7 119.759 55.7C118.535 55.7 117.575 56.084 116.879 56.852C116.207 57.62 115.847 58.796 115.799 60.38L115.763 61.712L115.799 62.9C115.943 66.02 117.263 67.58 119.759 67.58C120.695 67.58 121.451 67.388 122.027 67.004C122.603 66.596 123.071 65.924 123.431 64.988C123.527 64.724 123.635 64.532 123.755 64.412C123.899 64.292 124.103 64.232 124.367 64.232H127.571C127.811 64.232 128.015 64.316 128.183 64.484C128.375 64.652 128.459 64.856 128.435 65.096C128.387 65.936 128.051 66.848 127.427 67.832C126.803 68.792 125.843 69.62 124.547 70.316C123.251 71.012 121.631 71.36 119.687 71.36ZM133.089 71C132.849 71 132.645 70.916 132.477 70.748C132.309 70.58 132.225 70.376 132.225 70.136V46.304C132.225 46.04 132.309 45.836 132.477 45.692C132.645 45.524 132.849 45.44 133.089 45.44H136.077C136.317 45.44 136.521 45.524 136.689 45.692C136.857 45.86 136.941 46.064 136.941 46.304V58.616L142.917 52.892C142.989 52.844 143.097 52.76 143.241 52.64C143.409 52.496 143.565 52.4 143.709 52.352C143.853 52.304 144.033 52.28 144.249 52.28H147.669C147.909 52.28 148.101 52.352 148.245 52.496C148.389 52.64 148.461 52.832 148.461 53.072C148.461 53.288 148.341 53.504 148.101 53.72L140.757 60.668L149.001 69.596C149.217 69.812 149.325 70.016 149.325 70.208C149.325 70.448 149.253 70.64 149.109 70.784C148.965 70.928 148.785 71 148.569 71H145.077C144.741 71 144.489 70.964 144.321 70.892C144.177 70.796 143.985 70.628 143.745 70.388L136.941 63.152V70.136C136.941 70.376 136.857 70.58 136.689 70.748C136.521 70.916 136.317 71 136.077 71H133.089ZM159.273 71.36C156.585 71.36 154.449 70.592 152.865 69.056C151.305 67.52 150.477 65.336 150.381 62.504L150.345 61.604C150.345 58.604 151.125 56.24 152.685 54.512C154.269 52.784 156.453 51.92 159.237 51.92C162.093 51.92 164.289 52.784 165.825 54.512C167.385 56.24 168.165 58.544 168.165 61.424V62.18C168.165 62.42 168.081 62.624 167.913 62.792C167.745 62.96 167.529 63.044 167.265 63.044H155.313V63.332C155.361 64.676 155.721 65.792 156.393 66.68C157.089 67.544 158.037 67.976 159.237 67.976C160.605 67.976 161.721 67.424 162.585 66.32C162.801 66.056 162.969 65.9 163.089 65.852C163.209 65.78 163.413 65.744 163.701 65.744H166.869C167.085 65.744 167.265 65.804 167.409 65.924C167.577 66.044 167.661 66.212 167.661 66.428C167.661 67.004 167.313 67.688 166.617 68.48C165.945 69.248 164.973 69.92 163.701 70.496C162.429 71.072 160.953 71.36 159.273 71.36ZM163.197 59.984V59.912C163.197 58.496 162.837 57.368 162.117 56.528C161.421 55.664 160.461 55.232 159.237 55.232C158.013 55.232 157.053 55.664 156.357 56.528C155.661 57.368 155.313 58.496 155.313 59.912V59.984H163.197ZM180.411 71C178.227 71 176.583 70.436 175.479 69.308C174.375 68.156 173.823 66.476 173.823 64.268V56.132H170.979C170.739 56.132 170.535 56.048 170.367 55.88C170.199 55.712 170.115 55.508 170.115 55.268V53.144C170.115 52.904 170.199 52.7 170.367 52.532C170.535 52.364 170.739 52.28 170.979 52.28H173.823V46.304C173.823 46.04 173.907 45.836 174.075 45.692C174.243 45.524 174.447 45.44 174.687 45.44H177.675C177.939 45.44 178.143 45.524 178.287 45.692C178.455 45.836 178.539 46.04 178.539 46.304V52.28H183.039C183.279 52.28 183.483 52.364 183.651 52.532C183.819 52.7 183.903 52.904 183.903 53.144V55.268C183.903 55.508 183.819 55.712 183.651 55.88C183.483 56.048 183.279 56.132 183.039 56.132H178.539V63.872C178.539 64.904 178.719 65.684 179.079 66.212C179.439 66.74 180.027 67.004 180.843 67.004H183.363C183.627 67.004 183.831 67.088 183.975 67.256C184.143 67.4 184.227 67.604 184.227 67.868V70.136C184.227 70.376 184.143 70.58 183.975 70.748C183.831 70.916 183.627 71 183.363 71H180.411ZM194.943 78.92C193.071 78.92 191.571 78.596 190.443 77.948C189.315 77.3 188.523 76.556 188.067 75.716C187.635 74.9 187.419 74.18 187.419 73.556C187.419 73.34 187.491 73.16 187.635 73.016C187.803 72.872 187.995 72.8 188.211 72.8H188.715C188.931 72.8 189.099 72.848 189.219 72.944C189.363 73.064 189.483 73.268 189.579 73.556C190.323 75.74 192.051 76.832 194.763 76.832C196.827 76.832 198.351 76.4 199.335 75.536C200.319 74.696 200.811 73.184 200.811 71V68.516C199.419 70.412 197.403 71.36 194.763 71.36C192.171 71.36 190.251 70.52 189.003 68.84C187.779 67.136 187.131 65.072 187.059 62.648L187.023 61.64L187.059 60.632C187.131 58.208 187.779 56.156 189.003 54.476C190.251 52.772 192.171 51.92 194.763 51.92C197.379 51.92 199.395 52.868 200.811 54.764V53.108C200.811 52.868 200.883 52.676 201.027 52.532C201.171 52.364 201.363 52.28 201.603 52.28H202.179C202.419 52.28 202.611 52.364 202.755 52.532C202.923 52.676 203.007 52.868 203.007 53.108V70.64C203.007 73.208 202.407 75.224 201.207 76.688C200.007 78.176 197.919 78.92 194.943 78.92ZM194.979 69.272C196.875 69.272 198.303 68.648 199.263 67.4C200.223 66.128 200.739 64.64 200.811 62.936C200.835 62.696 200.847 62.264 200.847 61.64C200.847 61.016 200.835 60.584 200.811 60.344C200.739 58.64 200.223 57.164 199.263 55.916C198.303 54.644 196.875 54.008 194.979 54.008C193.035 54.008 191.607 54.632 190.695 55.88C189.807 57.104 189.327 58.688 189.255 60.632L189.219 61.64L189.255 62.648C189.327 64.592 189.807 66.188 190.695 67.436C191.607 68.66 193.035 69.272 194.979 69.272ZM213.917 71.36C212.765 71.36 211.697 71.12 210.713 70.64C209.729 70.16 208.937 69.512 208.337 68.696C207.761 67.88 207.473 66.98 207.473 65.996C207.473 64.412 208.109 63.116 209.381 62.108C210.677 61.1 212.417 60.452 214.601 60.164L220.289 59.372V58.112C220.289 56.792 219.881 55.784 219.065 55.088C218.273 54.368 217.049 54.008 215.393 54.008C214.169 54.008 213.161 54.248 212.369 54.728C211.601 55.208 211.109 55.784 210.893 56.456C210.797 56.744 210.677 56.948 210.533 57.068C210.413 57.164 210.245 57.212 210.029 57.212H209.525C209.309 57.212 209.117 57.14 208.949 56.996C208.805 56.828 208.733 56.636 208.733 56.42C208.733 55.892 208.973 55.28 209.453 54.584C209.933 53.864 210.677 53.24 211.685 52.712C212.693 52.184 213.929 51.92 215.393 51.92C217.961 51.92 219.785 52.532 220.865 53.756C221.945 54.98 222.485 56.468 222.485 58.22V70.208C222.485 70.448 222.413 70.64 222.269 70.784C222.125 70.928 221.933 71 221.693 71H221.081C220.841 71 220.649 70.928 220.505 70.784C220.361 70.64 220.289 70.448 220.289 70.208V68.516C219.761 69.308 218.981 69.98 217.949 70.532C216.941 71.084 215.597 71.36 213.917 71.36ZM214.277 69.272C216.029 69.272 217.469 68.696 218.597 67.544C219.725 66.392 220.289 64.736 220.289 62.576V61.352L215.645 62C213.677 62.264 212.189 62.72 211.181 63.368C210.173 64.016 209.669 64.832 209.669 65.816C209.669 66.92 210.125 67.772 211.037 68.372C211.973 68.972 213.053 69.272 214.277 69.272ZM234.302 71C232.526 71 231.266 70.472 230.522 69.416C229.778 68.336 229.406 66.86 229.406 64.988V54.368H226.598C226.358 54.368 226.166 54.296 226.022 54.152C225.878 54.008 225.806 53.816 225.806 53.576V53.072C225.806 52.832 225.878 52.64 226.022 52.496C226.166 52.352 226.358 52.28 226.598 52.28H229.406V46.232C229.406 45.992 229.478 45.8 229.622 45.656C229.766 45.512 229.958 45.44 230.198 45.44H230.81C231.05 45.44 231.242 45.512 231.386 45.656C231.53 45.8 231.602 45.992 231.602 46.232V52.28H236.066C236.306 52.28 236.498 52.352 236.642 52.496C236.786 52.64 236.858 52.832 236.858 53.072V53.576C236.858 53.816 236.786 54.008 236.642 54.152C236.498 54.296 236.306 54.368 236.066 54.368H231.602V64.844C231.602 66.188 231.818 67.208 232.25 67.904C232.706 68.576 233.45 68.912 234.482 68.912H236.426C236.666 68.912 236.858 68.984 237.002 69.128C237.146 69.272 237.218 69.464 237.218 69.704V70.208C237.218 70.448 237.146 70.64 237.002 70.784C236.858 70.928 236.666 71 236.426 71H234.302ZM247.887 71.36C245.607 71.36 243.771 70.616 242.379 69.128C240.987 67.616 240.195 65.6 240.003 63.08L239.967 61.64L240.003 60.2C240.195 57.704 240.975 55.7 242.343 54.188C243.735 52.676 245.583 51.92 247.887 51.92C250.383 51.92 252.327 52.748 253.719 54.404C255.135 56.06 255.843 58.328 255.843 61.208V61.748C255.843 61.988 255.759 62.18 255.591 62.324C255.447 62.468 255.255 62.54 255.015 62.54H242.199V62.9C242.247 64.028 242.499 65.084 242.955 66.068C243.435 67.028 244.095 67.808 244.935 68.408C245.775 68.984 246.759 69.272 247.887 69.272C249.207 69.272 250.275 69.02 251.091 68.516C251.931 67.988 252.531 67.46 252.891 66.932C253.107 66.644 253.263 66.464 253.359 66.392C253.479 66.32 253.683 66.284 253.971 66.284H254.547C254.763 66.284 254.943 66.344 255.087 66.464C255.231 66.584 255.303 66.74 255.303 66.932C255.303 67.436 254.979 68.048 254.331 68.768C253.707 69.464 252.831 70.076 251.703 70.604C250.575 71.108 249.303 71.36 247.887 71.36ZM253.647 60.524V60.38C253.647 58.532 253.119 57.008 252.063 55.808C251.031 54.608 249.639 54.008 247.887 54.008C246.135 54.008 244.743 54.608 243.711 55.808C242.703 57.008 242.199 58.532 242.199 60.38V60.524H253.647Z" fill="#2E5BFF"/>
</svg>
